G04*
G04 #@! TF.GenerationSoftware,Altium Limited,Altium Designer,18.0.11 (651)*
G04*
G04 Layer_Color=65535*
%FSLAX44Y44*%
%MOMM*%
G71*
G01*
G75*
%ADD10C,0.2500*%
%ADD11C,0.2000*%
%ADD12C,0.2540*%
%ADD13C,0.2032*%
D10*
X1071824Y1521176D02*
G03*
X1071824Y1521176I-1250J0D01*
G01*
X1143452Y1520160D02*
G03*
X1143452Y1520160I-1250J0D01*
G01*
D11*
X914100Y1728300D02*
Y1753700D01*
X1117300D01*
Y1728300D02*
Y1753700D01*
X914100Y1728300D02*
X1117300D01*
X1137300D02*
Y1753700D01*
X1340500D01*
Y1728300D02*
Y1753700D01*
X1137300Y1728300D02*
X1340500D01*
X1288948Y1543180D02*
X1307948D01*
X1288948Y1527680D02*
X1307948D01*
X1292000Y1661500D02*
X1300000D01*
X1292000Y1646500D02*
X1300000D01*
X1224500Y1640000D02*
Y1648000D01*
X1239500Y1640000D02*
Y1648000D01*
X1238402Y1612776D02*
X1257402D01*
X1238402Y1597276D02*
X1257402D01*
X1135000Y1682500D02*
X1143000D01*
X1135000Y1667500D02*
X1143000D01*
X1244664Y1525644D02*
X1252664D01*
X1244664Y1540644D02*
X1252664D01*
X1244664Y1582300D02*
X1252664D01*
X1244664Y1567300D02*
X1252664D01*
X1293500Y1580000D02*
Y1588000D01*
X1308500Y1580000D02*
Y1588000D01*
X1292000Y1616500D02*
X1300000D01*
X1292000Y1631500D02*
X1300000D01*
X1077074Y1520176D02*
X1123074D01*
X1077074Y1550176D02*
X1123074D01*
Y1520176D02*
Y1522676D01*
X1077074Y1520176D02*
Y1522676D01*
X1123074Y1547676D02*
Y1550176D01*
X1077074Y1547676D02*
Y1550176D01*
X1300360Y1464882D02*
Y1472882D01*
X1285360Y1464882D02*
Y1472882D01*
X1400940Y1493164D02*
Y1512164D01*
X1385440Y1493164D02*
Y1512164D01*
X1232434Y1448682D02*
X1240434D01*
X1232434Y1463682D02*
X1240434D01*
X537700Y1133700D02*
Y1368650D01*
Y1387700D01*
X512300D02*
X537700D01*
X512300Y1133700D02*
Y1387700D01*
Y1133700D02*
X537700D01*
X1477300Y1365500D02*
X1502700D01*
Y1162300D02*
Y1365500D01*
X1477300Y1162300D02*
X1502700D01*
X1477300D02*
Y1365500D01*
X1342796Y1488947D02*
Y1496688D01*
Y1511688D02*
Y1519422D01*
X1003934Y969138D02*
Y985138D01*
X987934Y969138D02*
Y985138D01*
X913772Y1134682D02*
Y1142682D01*
X898772Y1134682D02*
Y1142682D01*
X950094Y1135444D02*
Y1143444D01*
X935094Y1135444D02*
Y1143444D01*
X968884Y1129920D02*
Y1145920D01*
X984884Y1129920D02*
Y1145920D01*
X1293000Y1672500D02*
X1301000D01*
X1293000Y1687500D02*
X1301000D01*
X1148702Y1546660D02*
Y1549160D01*
X1194702Y1546660D02*
Y1549160D01*
X1148702Y1519160D02*
Y1521660D01*
X1194702Y1519160D02*
Y1521660D01*
X1148702Y1549160D02*
X1194702D01*
X1148702Y1519160D02*
X1194702D01*
X1440664Y948225D02*
X1438498Y950391D01*
X1434166D01*
X1432000Y948225D01*
Y939561D01*
X1434166Y937395D01*
X1438498D01*
X1440664Y939561D01*
X1444996Y937395D02*
Y950391D01*
X1451494D01*
X1453660Y948225D01*
Y943893D01*
X1451494Y941727D01*
X1444996D01*
X1457992Y950391D02*
Y937395D01*
X1464489D01*
X1466655Y939561D01*
Y941727D01*
X1464489Y943893D01*
X1457992D01*
X1464489D01*
X1466655Y946059D01*
Y948225D01*
X1464489Y950391D01*
X1457992D01*
X1470987Y937395D02*
Y950391D01*
X1477485D01*
X1479651Y948225D01*
Y943893D01*
X1477485Y941727D01*
X1470987D01*
X1475319D02*
X1479651Y937395D01*
X1483983Y950391D02*
Y937395D01*
X1490481D01*
X1492647Y939561D01*
Y941727D01*
X1490481Y943893D01*
X1483983D01*
X1490481D01*
X1492647Y946059D01*
Y948225D01*
X1490481Y950391D01*
X1483983D01*
X1440664Y929996D02*
X1432000D01*
Y923498D01*
X1436332D01*
X1432000D01*
Y917000D01*
X1451494Y929996D02*
X1447162D01*
X1444996Y927830D01*
Y919166D01*
X1447162Y917000D01*
X1451494D01*
X1453660Y919166D01*
Y927830D01*
X1451494Y929996D01*
X1457992Y925664D02*
Y919166D01*
X1460158Y917000D01*
X1466655D01*
Y925664D01*
X1473153Y927830D02*
Y925664D01*
X1470987D01*
X1475319D01*
X1473153D01*
Y919166D01*
X1475319Y917000D01*
X1022000Y933395D02*
Y946391D01*
X1028498D01*
X1030664Y944225D01*
Y939893D01*
X1028498Y937727D01*
X1022000D01*
X1026332D02*
X1030664Y933395D01*
X1034996Y946391D02*
Y933395D01*
X1041494D01*
X1043660Y935561D01*
Y937727D01*
X1041494Y939893D01*
X1034996D01*
X1041494D01*
X1043660Y942059D01*
Y944225D01*
X1041494Y946391D01*
X1034996D01*
X1047992Y933395D02*
Y946391D01*
X1054490D01*
X1056656Y944225D01*
Y939893D01*
X1054490Y937727D01*
X1047992D01*
X1052324D02*
X1056656Y933395D01*
X1060987Y946391D02*
Y933395D01*
X1067485D01*
X1069651Y935561D01*
Y937727D01*
X1067485Y939893D01*
X1060987D01*
X1067485D01*
X1069651Y942059D01*
Y944225D01*
X1067485Y946391D01*
X1060987D01*
X1030664Y925996D02*
X1022000D01*
Y919498D01*
X1026332D01*
X1022000D01*
Y913000D01*
X1041494Y925996D02*
X1037162D01*
X1034996Y923830D01*
Y915166D01*
X1037162Y913000D01*
X1041494D01*
X1043660Y915166D01*
Y923830D01*
X1041494Y925996D01*
X1047992Y921664D02*
Y915166D01*
X1050158Y913000D01*
X1056656D01*
Y921664D01*
X1063153Y923830D02*
Y921664D01*
X1060987D01*
X1065319D01*
X1063153D01*
Y915166D01*
X1065319Y913000D01*
X898631Y1205876D02*
X902963D01*
X900797D01*
Y1218872D01*
X898631Y1216706D01*
X918125Y1205876D02*
X909461D01*
X918125Y1214540D01*
Y1216706D01*
X915959Y1218872D01*
X911627D01*
X909461Y1216706D01*
X922457Y1212374D02*
X931121D01*
X944116Y1218872D02*
X939784Y1216706D01*
X935452Y1212374D01*
Y1208042D01*
X937618Y1205876D01*
X941950D01*
X944116Y1208042D01*
Y1210208D01*
X941950Y1212374D01*
X935452D01*
X948448Y1205876D02*
Y1208042D01*
X950614D01*
Y1205876D01*
X948448D01*
X967942Y1218872D02*
X959278D01*
Y1212374D01*
X963610Y1214540D01*
X965776D01*
X967942Y1212374D01*
Y1208042D01*
X965776Y1205876D01*
X961444D01*
X959278Y1208042D01*
X972274Y1218872D02*
Y1210208D01*
X976606Y1205876D01*
X980938Y1210208D01*
Y1218872D01*
X924623Y1196311D02*
X922457Y1198477D01*
X918125D01*
X915959Y1196311D01*
Y1194145D01*
X918125Y1191979D01*
X922457D01*
X924623Y1189813D01*
Y1187647D01*
X922457Y1185481D01*
X918125D01*
X915959Y1187647D01*
X928955Y1185481D02*
Y1198477D01*
X933287Y1194145D01*
X937618Y1198477D01*
Y1185481D01*
X941950D02*
Y1198477D01*
X948448D01*
X950614Y1196311D01*
Y1191979D01*
X948448Y1189813D01*
X941950D01*
X963610Y1196311D02*
X961444Y1198477D01*
X957112D01*
X954946Y1196311D01*
Y1194145D01*
X957112Y1191979D01*
X961444D01*
X963610Y1189813D01*
Y1187647D01*
X961444Y1185481D01*
X957112D01*
X954946Y1187647D01*
X1156004Y1373664D02*
Y1365000D01*
X1162502D01*
Y1369332D01*
Y1365000D01*
X1169000D01*
Y1377996D02*
X1156004D01*
Y1384494D01*
X1158170Y1386660D01*
X1162502D01*
X1164668Y1384494D01*
Y1377996D01*
X1160336Y1390992D02*
X1166834D01*
X1169000Y1393158D01*
Y1399655D01*
X1160336D01*
X1169000Y1403987D02*
X1160336D01*
Y1406153D01*
X1162502Y1408319D01*
X1169000D01*
X1162502D01*
X1160336Y1410485D01*
X1162502Y1412651D01*
X1169000D01*
X1173332Y1416983D02*
X1160336D01*
Y1423481D01*
X1162502Y1425647D01*
X1166834D01*
X1169000Y1423481D01*
Y1416983D01*
X573004Y965664D02*
Y957000D01*
X579502D01*
X577336Y961332D01*
Y963498D01*
X579502Y965664D01*
X583834D01*
X586000Y963498D01*
Y959166D01*
X583834Y957000D01*
X573004Y969996D02*
X581668D01*
X586000Y974328D01*
X581668Y978660D01*
X573004D01*
X586000Y982992D02*
X573004D01*
Y989490D01*
X575170Y991656D01*
X579502D01*
X581668Y989490D01*
Y982992D01*
Y987324D02*
X586000Y991656D01*
Y1002485D02*
Y998153D01*
X583834Y995987D01*
X579502D01*
X577336Y998153D01*
Y1002485D01*
X579502Y1004651D01*
X581668D01*
Y995987D01*
X590332Y1013315D02*
Y1015481D01*
X588166Y1017647D01*
X577336D01*
Y1011149D01*
X579502Y1008983D01*
X583834D01*
X586000Y1011149D01*
Y1017647D01*
X703000Y1157000D02*
Y1161332D01*
Y1159166D01*
X690004D01*
X692170Y1157000D01*
X703000Y1176494D02*
Y1167830D01*
X694336Y1176494D01*
X692170D01*
X690004Y1174328D01*
Y1169996D01*
X692170Y1167830D01*
X690004Y1180826D02*
X698668D01*
X703000Y1185158D01*
X698668Y1189490D01*
X690004D01*
X559816Y1526794D02*
X546820D01*
Y1533292D01*
X548986Y1535458D01*
X553318D01*
X555484Y1533292D01*
Y1526794D01*
Y1531126D02*
X559816Y1535458D01*
X546820Y1539790D02*
X559816D01*
Y1546288D01*
X557650Y1548454D01*
X555484D01*
X553318Y1546288D01*
Y1539790D01*
Y1546288D01*
X551152Y1548454D01*
X548986D01*
X546820Y1546288D01*
Y1539790D01*
X559816Y1552786D02*
X546820D01*
Y1559283D01*
X548986Y1561449D01*
X553318D01*
X555484Y1559283D01*
Y1552786D01*
Y1557118D02*
X559816Y1561449D01*
X546820Y1565781D02*
X559816D01*
Y1572279D01*
X557650Y1574445D01*
X555484D01*
X553318Y1572279D01*
Y1565781D01*
Y1572279D01*
X551152Y1574445D01*
X548986D01*
X546820Y1572279D01*
Y1565781D01*
X559816Y1591773D02*
Y1596105D01*
Y1593939D01*
X546820D01*
X548986Y1591773D01*
X559816Y1611267D02*
Y1602603D01*
X551152Y1611267D01*
X548986D01*
X546820Y1609101D01*
Y1604769D01*
X548986Y1602603D01*
X546820Y1628595D02*
Y1632926D01*
Y1630760D01*
X559816D01*
Y1628595D01*
Y1632926D01*
Y1639424D02*
X551152D01*
Y1645922D01*
X553318Y1648088D01*
X559816D01*
X583170Y1365664D02*
X581004Y1363498D01*
Y1359166D01*
X583170Y1357000D01*
X591834D01*
X594000Y1359166D01*
Y1363498D01*
X591834Y1365664D01*
X594000Y1369996D02*
X581004D01*
Y1376494D01*
X583170Y1378660D01*
X587502D01*
X589668Y1376494D01*
Y1369996D01*
X581004Y1382992D02*
X594000D01*
Y1389489D01*
X591834Y1391655D01*
X589668D01*
X587502Y1389489D01*
Y1382992D01*
Y1389489D01*
X585336Y1391655D01*
X583170D01*
X581004Y1389489D01*
Y1382992D01*
X594000Y1395987D02*
X581004D01*
Y1402485D01*
X583170Y1404651D01*
X587502D01*
X589668Y1402485D01*
Y1395987D01*
Y1400319D02*
X594000Y1404651D01*
X581004Y1408983D02*
X594000D01*
Y1415481D01*
X591834Y1417647D01*
X589668D01*
X587502Y1415481D01*
Y1408983D01*
Y1415481D01*
X585336Y1417647D01*
X583170D01*
X581004Y1415481D01*
Y1408983D01*
X594000Y1434975D02*
Y1439307D01*
Y1437141D01*
X581004D01*
X583170Y1434975D01*
X594000Y1454469D02*
Y1445805D01*
X585336Y1454469D01*
X583170D01*
X581004Y1452303D01*
Y1447971D01*
X583170Y1445805D01*
X581004Y1471796D02*
Y1476128D01*
Y1473962D01*
X594000D01*
Y1471796D01*
Y1476128D01*
Y1482626D02*
X585336D01*
Y1489124D01*
X587502Y1491290D01*
X594000D01*
X1101344Y1624330D02*
X1088348D01*
Y1630828D01*
X1090514Y1632994D01*
X1094846D01*
X1097012Y1630828D01*
Y1624330D01*
Y1628662D02*
X1101344Y1632994D01*
X1088348Y1645990D02*
Y1637326D01*
X1101344D01*
Y1645990D01*
X1094846Y1637326D02*
Y1641658D01*
X1090514Y1658985D02*
X1088348Y1656819D01*
Y1652488D01*
X1090514Y1650322D01*
X1092680D01*
X1094846Y1652488D01*
Y1656819D01*
X1097012Y1658985D01*
X1099178D01*
X1101344Y1656819D01*
Y1652488D01*
X1099178Y1650322D01*
X1088348Y1671981D02*
Y1663317D01*
X1101344D01*
Y1671981D01*
X1094846Y1663317D02*
Y1667649D01*
X1088348Y1676313D02*
Y1684977D01*
Y1680645D01*
X1101344D01*
X990000Y1707000D02*
Y1719996D01*
X996498D01*
X998664Y1717830D01*
Y1713498D01*
X996498Y1711332D01*
X990000D01*
X1002996Y1719996D02*
X1011660D01*
Y1717830D01*
X1002996Y1709166D01*
Y1707000D01*
X1418004Y1421360D02*
Y1434356D01*
X1422336Y1430024D01*
X1426668Y1434356D01*
Y1421360D01*
X1439664Y1432190D02*
X1437498Y1434356D01*
X1433166D01*
X1431000Y1432190D01*
Y1430024D01*
X1433166Y1427858D01*
X1437498D01*
X1439664Y1425692D01*
Y1423526D01*
X1437498Y1421360D01*
X1433166D01*
X1431000Y1423526D01*
X1443996Y1421360D02*
X1448328D01*
X1446162D01*
Y1434356D01*
X1443996Y1432190D01*
X1158426Y1329452D02*
X1171422D01*
X1167090D01*
X1158426Y1338116D01*
X1164924Y1331618D01*
X1171422Y1338116D01*
Y1342448D02*
Y1346780D01*
Y1344614D01*
X1158426D01*
X1160592Y1342448D01*
X1133000Y1690000D02*
Y1702996D01*
X1139498D01*
X1141664Y1700830D01*
Y1696498D01*
X1139498Y1694332D01*
X1133000D01*
X1137332D02*
X1141664Y1690000D01*
X1154660Y1702996D02*
X1150328Y1700830D01*
X1145996Y1696498D01*
Y1692166D01*
X1148162Y1690000D01*
X1152494D01*
X1154660Y1692166D01*
Y1694332D01*
X1152494Y1696498D01*
X1145996D01*
X1151664Y1612808D02*
X1149498Y1614974D01*
X1145166D01*
X1143000Y1612808D01*
Y1610642D01*
X1145166Y1608476D01*
X1149498D01*
X1151664Y1606310D01*
Y1604144D01*
X1149498Y1601978D01*
X1145166D01*
X1143000Y1604144D01*
X1155996Y1601978D02*
X1160328D01*
X1158162D01*
Y1614974D01*
X1155996Y1612808D01*
X1355740Y1735920D02*
Y1748916D01*
X1362238D01*
X1364404Y1746750D01*
Y1742418D01*
X1362238Y1740252D01*
X1355740D01*
X1377400Y1748916D02*
X1373068Y1746750D01*
X1368736Y1742418D01*
Y1738086D01*
X1370902Y1735920D01*
X1375234D01*
X1377400Y1738086D01*
Y1740252D01*
X1375234Y1742418D01*
X1368736D01*
X729442Y1259162D02*
Y1267826D01*
X733774Y1272158D01*
X738106Y1267826D01*
Y1259162D01*
Y1265660D01*
X729442D01*
X742438Y1259162D02*
Y1272158D01*
X746770Y1267826D01*
X751102Y1272158D01*
Y1259162D01*
X764098Y1269992D02*
X761932Y1272158D01*
X757600D01*
X755434Y1269992D01*
Y1267826D01*
X757600Y1265660D01*
X761932D01*
X764098Y1263494D01*
Y1261328D01*
X761932Y1259162D01*
X757600D01*
X755434Y1261328D01*
X768429Y1265660D02*
X777093D01*
X781425Y1272158D02*
Y1259162D01*
X790089D01*
X794421D02*
X798753D01*
X796587D01*
Y1272158D01*
X794421Y1269992D01*
X656000Y1756996D02*
Y1744000D01*
X662498D01*
X664664Y1746166D01*
Y1748332D01*
X662498Y1750498D01*
X656000D01*
X662498D01*
X664664Y1752664D01*
Y1754830D01*
X662498Y1756996D01*
X656000D01*
X668996Y1752664D02*
Y1744000D01*
Y1748332D01*
X671162Y1750498D01*
X673328Y1752664D01*
X675494D01*
X681992Y1744000D02*
Y1756996D01*
Y1748332D02*
X688490Y1752664D01*
X681992Y1748332D02*
X688490Y1744000D01*
X694987Y1756996D02*
Y1744000D01*
X703651D01*
X710149Y1754830D02*
Y1752664D01*
X707983D01*
X712315D01*
X710149D01*
Y1746166D01*
X712315Y1744000D01*
X718813D02*
X723145D01*
X720979D01*
Y1756996D01*
X718813Y1754830D01*
X823000Y1755996D02*
Y1743000D01*
X829498D01*
X831664Y1745166D01*
Y1747332D01*
X829498Y1749498D01*
X823000D01*
X829498D01*
X831664Y1751664D01*
Y1753830D01*
X829498Y1755996D01*
X823000D01*
X835996Y1751664D02*
Y1743000D01*
Y1747332D01*
X838162Y1749498D01*
X840328Y1751664D01*
X842494D01*
X848992Y1743000D02*
Y1755996D01*
Y1747332D02*
X855490Y1751664D01*
X848992Y1747332D02*
X855490Y1743000D01*
X870651Y1753830D02*
X868485Y1755996D01*
X864153D01*
X861987Y1753830D01*
Y1751664D01*
X864153Y1749498D01*
X868485D01*
X870651Y1747332D01*
Y1745166D01*
X868485Y1743000D01*
X864153D01*
X861987Y1745166D01*
X877149Y1743000D02*
X881481D01*
X883647Y1745166D01*
Y1749498D01*
X881481Y1751664D01*
X877149D01*
X874983Y1749498D01*
Y1745166D01*
X877149Y1743000D01*
X887979D02*
X892311D01*
X890145D01*
Y1755996D01*
X887979D01*
X907473Y1743000D02*
X898809D01*
X907473Y1751664D01*
Y1753830D01*
X905307Y1755996D01*
X900975D01*
X898809Y1753830D01*
X1332164Y1659830D02*
X1329998Y1661996D01*
X1325666D01*
X1323500Y1659830D01*
Y1651166D01*
X1325666Y1649000D01*
X1329998D01*
X1332164Y1651166D01*
X1336496Y1649000D02*
X1340828D01*
X1338662D01*
Y1661996D01*
X1336496Y1659830D01*
X1332164Y1629830D02*
X1329998Y1631996D01*
X1325666D01*
X1323500Y1629830D01*
Y1621166D01*
X1325666Y1619000D01*
X1329998D01*
X1332164Y1621166D01*
X1345160Y1619000D02*
X1336496D01*
X1345160Y1627664D01*
Y1629830D01*
X1342994Y1631996D01*
X1338662D01*
X1336496Y1629830D01*
X1247930Y1559976D02*
X1245764Y1562142D01*
X1241432D01*
X1239266Y1559976D01*
Y1551312D01*
X1241432Y1549146D01*
X1245764D01*
X1247930Y1551312D01*
X1252262Y1559976D02*
X1254428Y1562142D01*
X1258760D01*
X1260926Y1559976D01*
Y1557810D01*
X1258760Y1555644D01*
X1256594D01*
X1258760D01*
X1260926Y1553478D01*
Y1551312D01*
X1258760Y1549146D01*
X1254428D01*
X1252262Y1551312D01*
X1326682Y1588734D02*
X1324516Y1590900D01*
X1320184D01*
X1318018Y1588734D01*
Y1580070D01*
X1320184Y1577904D01*
X1324516D01*
X1326682Y1580070D01*
X1337512Y1577904D02*
Y1590900D01*
X1331014Y1584402D01*
X1339678D01*
X901664Y1108830D02*
X899498Y1110996D01*
X895166D01*
X893000Y1108830D01*
Y1100166D01*
X895166Y1098000D01*
X899498D01*
X901664Y1100166D01*
X905996D02*
X908162Y1098000D01*
X912494D01*
X914660Y1100166D01*
Y1108830D01*
X912494Y1110996D01*
X908162D01*
X905996Y1108830D01*
Y1106664D01*
X908162Y1104498D01*
X914660D01*
X936664Y1109830D02*
X934498Y1111996D01*
X930166D01*
X928000Y1109830D01*
Y1101166D01*
X930166Y1099000D01*
X934498D01*
X936664Y1101166D01*
X940996Y1099000D02*
X945328D01*
X943162D01*
Y1111996D01*
X940996Y1109830D01*
X951826D02*
X953992Y1111996D01*
X958324D01*
X960490Y1109830D01*
Y1101166D01*
X958324Y1099000D01*
X953992D01*
X951826Y1101166D01*
Y1109830D01*
X1003664Y1130830D02*
X1001498Y1132996D01*
X997166D01*
X995000Y1130830D01*
Y1122166D01*
X997166Y1120000D01*
X1001498D01*
X1003664Y1122166D01*
X1007996Y1120000D02*
X1012328D01*
X1010162D01*
Y1132996D01*
X1007996Y1130830D01*
X1018826Y1120000D02*
X1023158D01*
X1020992D01*
Y1132996D01*
X1018826Y1130830D01*
X1020664Y982830D02*
X1018498Y984996D01*
X1014166D01*
X1012000Y982830D01*
Y974166D01*
X1014166Y972000D01*
X1018498D01*
X1020664Y974166D01*
X1024996Y972000D02*
X1029328D01*
X1027162D01*
Y984996D01*
X1024996Y982830D01*
X1044490Y972000D02*
X1035826D01*
X1044490Y980664D01*
Y982830D01*
X1042324Y984996D01*
X1037992D01*
X1035826Y982830D01*
X1359664Y1263830D02*
X1357498Y1265996D01*
X1353166D01*
X1351000Y1263830D01*
Y1255166D01*
X1353166Y1253000D01*
X1357498D01*
X1359664Y1255166D01*
X1370494Y1265996D02*
X1366162D01*
X1363996Y1263830D01*
Y1255166D01*
X1366162Y1253000D01*
X1370494D01*
X1372660Y1255166D01*
Y1263830D01*
X1370494Y1265996D01*
X1376992D02*
X1381324D01*
X1379158D01*
Y1253000D01*
X1376992D01*
X1381324D01*
X1387821Y1265996D02*
Y1253000D01*
X1396485D01*
X1400817D02*
X1405149D01*
X1402983D01*
Y1265996D01*
X1400817Y1263830D01*
X1165860Y1509564D02*
Y1496568D01*
X1172358D01*
X1174524Y1498734D01*
Y1507398D01*
X1172358Y1509564D01*
X1165860D01*
X1178856Y1496568D02*
X1183188D01*
X1181022D01*
Y1509564D01*
X1178856Y1507398D01*
X1046758Y1525176D02*
X1059754D01*
Y1531674D01*
X1057588Y1533840D01*
X1048924D01*
X1046758Y1531674D01*
Y1525176D01*
X1059754Y1546836D02*
Y1538172D01*
X1051090Y1546836D01*
X1048924D01*
X1046758Y1544670D01*
Y1540338D01*
X1048924Y1538172D01*
X1309456Y1445944D02*
X1322452D01*
Y1452442D01*
X1320286Y1454608D01*
X1311622D01*
X1309456Y1452442D01*
Y1445944D01*
X1320286Y1458940D02*
X1322452Y1461106D01*
Y1465438D01*
X1320286Y1467604D01*
X1311622D01*
X1309456Y1465438D01*
Y1461106D01*
X1311622Y1458940D01*
X1313788D01*
X1315954Y1461106D01*
Y1467604D01*
X1282860Y1506878D02*
Y1493882D01*
X1289358D01*
X1291524Y1496048D01*
Y1504712D01*
X1289358Y1506878D01*
X1282860D01*
X1295856Y1493882D02*
X1300188D01*
X1298022D01*
Y1506878D01*
X1295856Y1504712D01*
X1306686D02*
X1308852Y1506878D01*
X1313183D01*
X1315349Y1504712D01*
Y1496048D01*
X1313183Y1493882D01*
X1308852D01*
X1306686Y1496048D01*
Y1504712D01*
X772664Y1525996D02*
X764000D01*
Y1513000D01*
X772664D01*
X764000Y1519498D02*
X768332D01*
X776996Y1513000D02*
Y1521664D01*
X783494D01*
X785660Y1519498D01*
Y1513000D01*
X794324Y1508668D02*
X796489D01*
X798655Y1510834D01*
Y1521664D01*
X792158D01*
X789992Y1519498D01*
Y1515166D01*
X792158Y1513000D01*
X798655D01*
X811651Y1525996D02*
X802987D01*
Y1519498D01*
X807319D01*
X802987D01*
Y1513000D01*
X818149Y1521664D02*
X822481D01*
X824647Y1519498D01*
Y1513000D01*
X818149D01*
X815983Y1515166D01*
X818149Y1517332D01*
X824647D01*
X828979Y1513000D02*
Y1521664D01*
X835477D01*
X837643Y1519498D01*
Y1513000D01*
X841975D02*
X846307D01*
X844141D01*
Y1525996D01*
X841975Y1523830D01*
X774664Y1084996D02*
X766000D01*
Y1072000D01*
X774664D01*
X766000Y1078498D02*
X770332D01*
X778996Y1084996D02*
X787660D01*
X783328D01*
Y1072000D01*
X791992Y1084996D02*
Y1072000D01*
X798490D01*
X800656Y1074166D01*
Y1076332D01*
X798490Y1078498D01*
X791992D01*
X798490D01*
X800656Y1080664D01*
Y1082830D01*
X798490Y1084996D01*
X791992D01*
X804987Y1072000D02*
X809319D01*
X807153D01*
Y1084996D01*
X804987Y1082830D01*
X1191665Y1082997D02*
X1185000D01*
Y1073000D01*
X1191665D01*
X1185000Y1077998D02*
X1188332D01*
X1194997Y1082997D02*
X1201661D01*
X1198329D01*
Y1073000D01*
X1204994Y1082997D02*
Y1073000D01*
X1209992D01*
X1211658Y1074666D01*
Y1076332D01*
X1209992Y1077998D01*
X1204994D01*
X1209992D01*
X1211658Y1079665D01*
Y1081331D01*
X1209992Y1082997D01*
X1204994D01*
X1214990Y1077998D02*
X1221655D01*
X1224987Y1082997D02*
Y1073000D01*
X1229986D01*
X1231652Y1074666D01*
Y1081331D01*
X1229986Y1082997D01*
X1224987D01*
X1234984Y1073000D02*
X1238316D01*
X1236650D01*
Y1082997D01*
X1234984Y1081331D01*
X1011664Y1503996D02*
X1003000D01*
Y1497498D01*
X1007332D01*
X1003000D01*
Y1491000D01*
X1015996D02*
Y1503996D01*
X1022494D01*
X1024660Y1501830D01*
Y1497498D01*
X1022494Y1495332D01*
X1015996D01*
X1028992Y1499664D02*
Y1493166D01*
X1031158Y1491000D01*
X1037655D01*
Y1499664D01*
X1041987Y1491000D02*
Y1499664D01*
X1044153D01*
X1046319Y1497498D01*
Y1491000D01*
Y1497498D01*
X1048485Y1499664D01*
X1050651Y1497498D01*
Y1491000D01*
X1054983Y1486668D02*
Y1499664D01*
X1061481D01*
X1063647Y1497498D01*
Y1493166D01*
X1061481Y1491000D01*
X1054983D01*
X1067979D02*
X1072311D01*
X1070145D01*
Y1503996D01*
X1067979Y1501830D01*
X1277000Y1265996D02*
X1281332D01*
X1279166D01*
Y1253000D01*
X1277000D01*
X1281332D01*
X1296494Y1263830D02*
X1294328Y1265996D01*
X1289996D01*
X1287830Y1263830D01*
Y1255166D01*
X1289996Y1253000D01*
X1294328D01*
X1296494Y1255166D01*
Y1259498D01*
X1292162D01*
X1300826Y1253000D02*
Y1265996D01*
X1309489Y1253000D01*
Y1265996D01*
X1313822Y1253000D02*
X1318153D01*
X1315987D01*
Y1265996D01*
X1313822Y1263830D01*
X1196000Y1266996D02*
X1200332D01*
X1198166D01*
Y1254000D01*
X1196000D01*
X1200332D01*
X1206830D02*
Y1266996D01*
X1215494Y1254000D01*
Y1266996D01*
X1228490D02*
X1224158D01*
X1226323D01*
Y1256166D01*
X1224158Y1254000D01*
X1221992D01*
X1219826Y1256166D01*
X1232821Y1254000D02*
X1237153D01*
X1234987D01*
Y1266996D01*
X1232821Y1264830D01*
X815992Y1270666D02*
X820324D01*
X818158D01*
Y1257670D01*
X815992D01*
X820324D01*
X826822D02*
Y1270666D01*
X835486Y1257670D01*
Y1270666D01*
X848482Y1268500D02*
X846316Y1270666D01*
X841984D01*
X839818Y1268500D01*
Y1266334D01*
X841984Y1264168D01*
X846316D01*
X848482Y1262002D01*
Y1259836D01*
X846316Y1257670D01*
X841984D01*
X839818Y1259836D01*
X852813Y1270666D02*
X861477D01*
X857145D01*
Y1257670D01*
X865809D02*
X870141D01*
X867975D01*
Y1270666D01*
X865809Y1268500D01*
X1004006Y1285248D02*
Y1272252D01*
X1012670D01*
X1025666D02*
X1017002D01*
X1025666Y1280916D01*
Y1283082D01*
X1023500Y1285248D01*
X1019168D01*
X1017002Y1283082D01*
X1349000Y1072000D02*
Y1083996D01*
X1352999Y1079997D01*
X1356997Y1083996D01*
Y1072000D01*
X1362995Y1081997D02*
Y1079997D01*
X1360996D01*
X1364995D01*
X1362995D01*
Y1073999D01*
X1364995Y1072000D01*
X1370993Y1079997D02*
Y1072000D01*
Y1075999D01*
X1372992Y1077998D01*
X1374992Y1079997D01*
X1376991D01*
X1390986Y1081997D02*
X1388987Y1083996D01*
X1384988D01*
X1382989Y1081997D01*
Y1073999D01*
X1384988Y1072000D01*
X1388987D01*
X1390986Y1073999D01*
X1396985Y1081997D02*
Y1079997D01*
X1394985D01*
X1398984D01*
X1396985D01*
Y1073999D01*
X1398984Y1072000D01*
X1404982Y1079997D02*
Y1072000D01*
Y1075999D01*
X1406981Y1077998D01*
X1408981Y1079997D01*
X1410980D01*
X1416978Y1072000D02*
X1420977D01*
X1418977D01*
Y1083996D01*
X1416978D01*
X1426975Y1072000D02*
X1430974D01*
X1428974D01*
Y1083996D01*
X1426975Y1081997D01*
X1346488Y1529676D02*
Y1538340D01*
X1344322Y1540506D01*
X1339990D01*
X1337824Y1538340D01*
Y1529676D01*
X1339990Y1527510D01*
X1344322D01*
X1342156Y1531842D02*
X1346488Y1527510D01*
X1344322D02*
X1346488Y1529676D01*
X1359484Y1540506D02*
X1355152Y1538340D01*
X1350820Y1534008D01*
Y1529676D01*
X1352986Y1527510D01*
X1357318D01*
X1359484Y1529676D01*
Y1531842D01*
X1357318Y1534008D01*
X1350820D01*
X1248100Y1637244D02*
Y1650240D01*
X1254598D01*
X1256764Y1648074D01*
Y1643742D01*
X1254598Y1641576D01*
X1248100D01*
X1252432D02*
X1256764Y1637244D01*
X1267594D02*
Y1650240D01*
X1261096Y1643742D01*
X1269760D01*
X1235964Y1503680D02*
Y1516676D01*
X1242462D01*
X1244628Y1514510D01*
Y1510178D01*
X1242462Y1508012D01*
X1235964D01*
X1240296D02*
X1244628Y1503680D01*
X1257624D02*
X1248960D01*
X1257624Y1512344D01*
Y1514510D01*
X1255458Y1516676D01*
X1251126D01*
X1248960Y1514510D01*
X1324500Y1675000D02*
Y1687996D01*
X1330998D01*
X1333164Y1685830D01*
Y1681498D01*
X1330998Y1679332D01*
X1324500D01*
X1328832D02*
X1333164Y1675000D01*
X1346160Y1687996D02*
X1337496D01*
Y1681498D01*
X1341828Y1683664D01*
X1343994D01*
X1346160Y1681498D01*
Y1677166D01*
X1343994Y1675000D01*
X1339662D01*
X1337496Y1677166D01*
X1275550Y1447038D02*
X1262554D01*
Y1453536D01*
X1264720Y1455702D01*
X1269052D01*
X1271218Y1453536D01*
Y1447038D01*
Y1451370D02*
X1275550Y1455702D01*
Y1460034D02*
Y1464366D01*
Y1462200D01*
X1262554D01*
X1264720Y1460034D01*
Y1470864D02*
X1262554Y1473030D01*
Y1477361D01*
X1264720Y1479527D01*
X1273384D01*
X1275550Y1477361D01*
Y1473030D01*
X1273384Y1470864D01*
X1264720D01*
X1411000Y1495000D02*
Y1507996D01*
X1417498D01*
X1419664Y1505830D01*
Y1501498D01*
X1417498Y1499332D01*
X1411000D01*
X1415332D02*
X1419664Y1495000D01*
X1423996D02*
X1428328D01*
X1426162D01*
Y1507996D01*
X1423996Y1505830D01*
X1434826Y1497166D02*
X1436992Y1495000D01*
X1441324D01*
X1443490Y1497166D01*
Y1505830D01*
X1441324Y1507996D01*
X1436992D01*
X1434826Y1505830D01*
Y1503664D01*
X1436992Y1501498D01*
X1443490D01*
X919404Y1573356D02*
Y1564692D01*
X925902D01*
Y1569024D01*
Y1564692D01*
X932400D01*
Y1577688D02*
X919404D01*
Y1584186D01*
X921570Y1586352D01*
X925902D01*
X928068Y1584186D01*
Y1577688D01*
X932400Y1590684D02*
X919404D01*
Y1597182D01*
X921570Y1599348D01*
X925902D01*
X928068Y1597182D01*
Y1590684D01*
Y1595016D02*
X932400Y1599348D01*
Y1603679D02*
Y1608011D01*
Y1605845D01*
X919404D01*
Y1603679D01*
X923736Y1614509D02*
X930234D01*
X932400Y1616675D01*
Y1623173D01*
X934566D01*
X936732Y1621007D01*
Y1618841D01*
X932400Y1623173D02*
X923736D01*
X932400Y1627505D02*
Y1631837D01*
Y1629671D01*
X919404D01*
X921570Y1627505D01*
X736000Y1744000D02*
Y1756996D01*
X742498D01*
X744664Y1754830D01*
Y1750498D01*
X742498Y1748332D01*
X736000D01*
X740332D02*
X744664Y1744000D01*
X748996D02*
X755494D01*
X757660Y1746166D01*
X755494Y1748332D01*
X751162D01*
X748996Y1750498D01*
X751162Y1752664D01*
X757660D01*
X764158Y1754830D02*
Y1752664D01*
X761992D01*
X766324D01*
X764158D01*
Y1746166D01*
X766324Y1744000D01*
X781485Y1754830D02*
X779319Y1756996D01*
X774987D01*
X772821Y1754830D01*
Y1746166D01*
X774987Y1744000D01*
X779319D01*
X781485Y1746166D01*
X794481Y1754830D02*
X792315Y1756996D01*
X787983D01*
X785817Y1754830D01*
Y1746166D01*
X787983Y1744000D01*
X792315D01*
X794481Y1746166D01*
X798813Y1756996D02*
X807477D01*
X803145D01*
Y1744000D01*
X811809D02*
X816141D01*
X813975D01*
Y1756996D01*
X811809Y1754830D01*
X843664Y1082830D02*
X841498Y1084996D01*
X837166D01*
X835000Y1082830D01*
Y1080664D01*
X837166Y1078498D01*
X841498D01*
X843664Y1076332D01*
Y1074166D01*
X841498Y1072000D01*
X837166D01*
X835000Y1074166D01*
X847996Y1084996D02*
Y1072000D01*
Y1078498D01*
X856660D01*
Y1084996D01*
Y1072000D01*
X869656Y1084996D02*
X860992D01*
Y1078498D01*
X865324D01*
X860992D01*
Y1072000D01*
X873987Y1084996D02*
X882651D01*
X878319D01*
Y1072000D01*
X886983D02*
X891315D01*
X889149D01*
Y1084996D01*
X886983Y1082830D01*
X939664Y1331830D02*
X937498Y1333996D01*
X933166D01*
X931000Y1331830D01*
Y1329664D01*
X933166Y1327498D01*
X937498D01*
X939664Y1325332D01*
Y1323166D01*
X937498Y1321000D01*
X933166D01*
X931000Y1323166D01*
X943996Y1333996D02*
Y1321000D01*
X950494D01*
X952660Y1323166D01*
Y1331830D01*
X950494Y1333996D01*
X943996D01*
X956992Y1329664D02*
Y1323166D01*
X959158Y1321000D01*
X961324Y1323166D01*
X963490Y1321000D01*
X965656Y1323166D01*
Y1329664D01*
X969987Y1321000D02*
Y1329664D01*
X976485D01*
X978651Y1327498D01*
Y1321000D01*
X982983D02*
X987315D01*
X985149D01*
Y1333996D01*
X982983Y1331830D01*
X866664Y1523830D02*
X864498Y1525996D01*
X860166D01*
X858000Y1523830D01*
Y1521664D01*
X860166Y1519498D01*
X864498D01*
X866664Y1517332D01*
Y1515166D01*
X864498Y1513000D01*
X860166D01*
X858000Y1515166D01*
X870996Y1525996D02*
Y1515166D01*
X873162Y1513000D01*
X877494D01*
X879660Y1515166D01*
Y1525996D01*
X883992Y1508668D02*
Y1521664D01*
X890490D01*
X892655Y1519498D01*
Y1515166D01*
X890490Y1513000D01*
X883992D01*
X896987D02*
X901319D01*
X899153D01*
Y1525996D01*
X896987Y1523830D01*
X597330Y1754950D02*
X595164Y1757116D01*
X590832D01*
X588666Y1754950D01*
Y1746286D01*
X590832Y1744120D01*
X595164D01*
X597330Y1746286D01*
X603828Y1754950D02*
Y1752784D01*
X601662D01*
X605994D01*
X603828D01*
Y1746286D01*
X605994Y1744120D01*
X612492Y1752784D02*
Y1744120D01*
Y1748452D01*
X614658Y1750618D01*
X616824Y1752784D01*
X618989D01*
X625487Y1744120D02*
X629819D01*
X627653D01*
Y1757116D01*
X625487D01*
X916664Y1086830D02*
X914498Y1088996D01*
X910166D01*
X908000Y1086830D01*
Y1084664D01*
X910166Y1082498D01*
X914498D01*
X916664Y1080332D01*
Y1078166D01*
X914498Y1076000D01*
X910166D01*
X908000Y1078166D01*
X920996Y1071668D02*
Y1084664D01*
X927494D01*
X929660Y1082498D01*
Y1078166D01*
X927494Y1076000D01*
X920996D01*
X933992Y1084664D02*
Y1076000D01*
Y1080332D01*
X936158Y1082498D01*
X938324Y1084664D01*
X940490D01*
X955651Y1088996D02*
X946987D01*
Y1082498D01*
X951319Y1084664D01*
X953485D01*
X955651Y1082498D01*
Y1078166D01*
X953485Y1076000D01*
X949153D01*
X946987Y1078166D01*
X959983Y1088996D02*
Y1080332D01*
X964315Y1076000D01*
X968647Y1080332D01*
Y1088996D01*
X614664Y1525830D02*
X612498Y1527996D01*
X608166D01*
X606000Y1525830D01*
Y1523664D01*
X608166Y1521498D01*
X612498D01*
X614664Y1519332D01*
Y1517166D01*
X612498Y1515000D01*
X608166D01*
X606000Y1517166D01*
X618996Y1510668D02*
Y1523664D01*
X625494D01*
X627660Y1521498D01*
Y1517166D01*
X625494Y1515000D01*
X618996D01*
X631992D02*
X636324D01*
X634158D01*
Y1527996D01*
X631992Y1525830D01*
X651485Y1527996D02*
X642821D01*
Y1521498D01*
X647153D01*
X642821D01*
Y1515000D01*
X664481Y1527996D02*
X655817D01*
Y1515000D01*
X664481D01*
X655817Y1521498D02*
X660149D01*
X668813Y1527996D02*
X677477D01*
X673145D01*
Y1515000D01*
X700664Y1081830D02*
X698498Y1083996D01*
X694166D01*
X692000Y1081830D01*
Y1079664D01*
X694166Y1077498D01*
X698498D01*
X700664Y1075332D01*
Y1073166D01*
X698498Y1071000D01*
X694166D01*
X692000Y1073166D01*
X704996Y1071000D02*
Y1083996D01*
X711494D01*
X713660Y1081830D01*
Y1077498D01*
X711494Y1075332D01*
X704996D01*
X717992Y1083996D02*
Y1071000D01*
X724490D01*
X726656Y1073166D01*
Y1081830D01*
X724490Y1083996D01*
X717992D01*
X730987Y1071000D02*
X735319D01*
X733153D01*
Y1083996D01*
X730987Y1081830D01*
X1270997Y1081997D02*
X1268998Y1083996D01*
X1264999D01*
X1263000Y1081997D01*
Y1079997D01*
X1264999Y1077998D01*
X1268998D01*
X1270997Y1075999D01*
Y1073999D01*
X1268998Y1072000D01*
X1264999D01*
X1263000Y1073999D01*
X1274996Y1068001D02*
Y1079997D01*
X1280994D01*
X1282993Y1077998D01*
Y1073999D01*
X1280994Y1072000D01*
X1274996D01*
X1286992Y1079997D02*
Y1072000D01*
Y1075999D01*
X1288992Y1077998D01*
X1290991Y1079997D01*
X1292990D01*
X1298988Y1072000D02*
X1302987D01*
X1300988D01*
Y1083996D01*
X1298988Y1081997D01*
X1316983Y1072000D02*
X1308985D01*
X1316983Y1079997D01*
Y1081997D01*
X1314983Y1083996D01*
X1310984D01*
X1308985Y1081997D01*
X1328979D02*
X1326979Y1083996D01*
X1322981D01*
X1320981Y1081997D01*
Y1073999D01*
X1322981Y1072000D01*
X1326979D01*
X1328979Y1073999D01*
X1332977Y1072000D02*
Y1083996D01*
X1338975D01*
X1340975Y1081997D01*
Y1077998D01*
X1338975Y1075999D01*
X1332977D01*
X698664Y1523830D02*
X696498Y1525996D01*
X692166D01*
X690000Y1523830D01*
Y1521664D01*
X692166Y1519498D01*
X696498D01*
X698664Y1517332D01*
Y1515166D01*
X696498Y1513000D01*
X692166D01*
X690000Y1515166D01*
X705162Y1523830D02*
Y1521664D01*
X702996D01*
X707328D01*
X705162D01*
Y1515166D01*
X707328Y1513000D01*
X715992Y1521664D02*
X720323D01*
X722489Y1519498D01*
Y1513000D01*
X715992D01*
X713826Y1515166D01*
X715992Y1517332D01*
X722489D01*
X726821Y1521664D02*
Y1513000D01*
Y1517332D01*
X728987Y1519498D01*
X731153Y1521664D01*
X733319D01*
X741983Y1523830D02*
Y1521664D01*
X739817D01*
X744149D01*
X741983D01*
Y1515166D01*
X744149Y1513000D01*
X750647D02*
X754979D01*
X752813D01*
Y1525996D01*
X750647Y1523830D01*
X614664Y1081830D02*
X612498Y1083996D01*
X608166D01*
X606000Y1081830D01*
Y1079664D01*
X608166Y1077498D01*
X612498D01*
X614664Y1075332D01*
Y1073166D01*
X612498Y1071000D01*
X608166D01*
X606000Y1073166D01*
X618996Y1083996D02*
Y1073166D01*
X621162Y1071000D01*
X625494D01*
X627660Y1073166D01*
Y1083996D01*
X640656Y1081830D02*
X638489Y1083996D01*
X634158D01*
X631992Y1081830D01*
Y1079664D01*
X634158Y1077498D01*
X638489D01*
X640656Y1075332D01*
Y1073166D01*
X638489Y1071000D01*
X634158D01*
X631992Y1073166D01*
X644987Y1071000D02*
Y1083996D01*
X651485D01*
X653651Y1081830D01*
Y1077498D01*
X651485Y1075332D01*
X644987D01*
X657983Y1071000D02*
X662315D01*
X660149D01*
Y1083996D01*
X657983Y1081830D01*
X1122000Y1084996D02*
X1129997D01*
X1125999D01*
Y1073000D01*
X1141993Y1082997D02*
X1139994Y1084996D01*
X1135995D01*
X1133996Y1082997D01*
Y1080997D01*
X1135995Y1078998D01*
X1139994D01*
X1141993Y1076999D01*
Y1074999D01*
X1139994Y1073000D01*
X1135995D01*
X1133996Y1074999D01*
X1145992Y1073000D02*
Y1084996D01*
X1149991Y1080997D01*
X1153990Y1084996D01*
Y1073000D01*
X1165986Y1082997D02*
X1163986Y1084996D01*
X1159988D01*
X1157988Y1082997D01*
Y1080997D01*
X1159988Y1078998D01*
X1163986D01*
X1165986Y1076999D01*
Y1074999D01*
X1163986Y1073000D01*
X1159988D01*
X1157988Y1074999D01*
X1169985Y1073000D02*
X1173983D01*
X1171984D01*
Y1084996D01*
X1169985Y1082997D01*
X928000Y1281996D02*
Y1271166D01*
X930166Y1269000D01*
X934498D01*
X936664Y1271166D01*
Y1281996D01*
X940996D02*
X949660D01*
Y1279830D01*
X940996Y1271166D01*
Y1269000D01*
X1041000Y1066996D02*
Y1056166D01*
X1043166Y1054000D01*
X1047498D01*
X1049664Y1056166D01*
Y1066996D01*
X1053996Y1064830D02*
X1056162Y1066996D01*
X1060494D01*
X1062660Y1064830D01*
Y1062664D01*
X1060494Y1060498D01*
X1062660Y1058332D01*
Y1056166D01*
X1060494Y1054000D01*
X1056162D01*
X1053996Y1056166D01*
Y1058332D01*
X1056162Y1060498D01*
X1053996Y1062664D01*
Y1064830D01*
X1056162Y1060498D02*
X1060494D01*
D12*
X1318650Y888250D02*
Y898800D01*
X730350Y888250D02*
Y898800D01*
X1318650D01*
Y775900D02*
Y888250D01*
X730350Y775900D02*
Y888250D01*
Y765200D02*
X1318650D01*
X730350D02*
Y775900D01*
X1318650Y765200D02*
Y775900D01*
X1081786Y902000D02*
Y1071626D01*
X1144778Y1134618D01*
Y1149361D02*
Y1293000D01*
X1096518Y944880D02*
Y1068518D01*
X1172972Y1144972D01*
Y1273000D01*
X1336950Y1279520D02*
X1409340D01*
X1336950D02*
Y1439540D01*
X1409340Y1279520D02*
Y1439540D01*
X1336950D02*
X1409340D01*
X1180500Y1287000D02*
Y1437000D01*
Y1287000D02*
X1330500D01*
X1180500Y1437000D02*
X1330500D01*
Y1287000D02*
Y1437000D01*
X1422400Y903986D02*
Y943998D01*
X1096518Y905510D02*
Y944880D01*
X1109980Y1560322D02*
Y1656842D01*
X1191260D01*
Y1560322D02*
Y1656842D01*
X1109980Y1560322D02*
X1191260D01*
X676402Y906272D02*
X748792D01*
X676402D02*
Y1066292D01*
X748792Y906272D02*
Y1066292D01*
X676402D02*
X748792D01*
X598170Y906272D02*
X670560D01*
X598170D02*
Y1066292D01*
X670560Y906272D02*
Y1066292D01*
X598170D02*
X670560D01*
X752856Y906780D02*
X825246D01*
X752856D02*
Y1066800D01*
X825246Y906780D02*
Y1066800D01*
X752856D02*
X825246D01*
X830072Y907542D02*
X902462D01*
X830072D02*
Y1067562D01*
X902462Y907542D02*
Y1067562D01*
X830072D02*
X902462D01*
X906780Y906780D02*
X979170D01*
X906780D02*
Y1066800D01*
X979170Y906780D02*
Y1066800D01*
X906780D02*
X979170D01*
X564500Y902000D02*
Y1293000D01*
X1144778D01*
Y1134618D02*
Y1149361D01*
X564500Y902000D02*
X1081786D01*
X806696Y1092520D02*
X879086D01*
X806696D02*
Y1252540D01*
X879086Y1092520D02*
Y1252540D01*
X806696D02*
X879086D01*
X727660Y1092520D02*
X800050D01*
X727660D02*
Y1252540D01*
X800050Y1092520D02*
Y1252540D01*
X727660D02*
X800050D01*
X1172972Y1273000D02*
X1422400D01*
X1263904Y907796D02*
X1336294D01*
X1263904D02*
Y1067816D01*
X1336294Y907796D02*
Y1067816D01*
X1263904D02*
X1336294D01*
X1343914Y907796D02*
X1416304D01*
X1343914D02*
Y1067816D01*
X1416304Y907796D02*
Y1067816D01*
X1343914D02*
X1416304D01*
X1096504Y904000D02*
X1421504D01*
X1422400Y943998D02*
Y1273000D01*
X1184402Y908812D02*
X1256792D01*
X1184402D02*
Y1068832D01*
X1256792Y908812D02*
Y1068832D01*
X1184402D02*
X1256792D01*
X942660Y1516520D02*
X1015050D01*
X942660D02*
Y1676540D01*
X1015050Y1516520D02*
Y1676540D01*
X942660D02*
X1015050D01*
X588660Y1578460D02*
X661050D01*
X588660D02*
Y1738480D01*
X661050Y1578460D02*
Y1738480D01*
X588660D02*
X661050D01*
X667258Y1578610D02*
X739648D01*
X667258D02*
Y1738630D01*
X739648Y1578610D02*
Y1738630D01*
X667258D02*
X739648D01*
X746760Y1579118D02*
X819150D01*
X746760D02*
Y1739138D01*
X819150Y1579118D02*
Y1739138D01*
X746760D02*
X819150D01*
X1107186Y907796D02*
X1179576D01*
X1107186D02*
Y1067816D01*
X1179576Y907796D02*
Y1067816D01*
X1107186D02*
X1179576D01*
X1182164Y1087520D02*
X1254554D01*
X1182164D02*
Y1247540D01*
X1254554Y1087520D02*
Y1247540D01*
X1182164D02*
X1254554D01*
X1261164Y1087520D02*
X1333554D01*
X1261164D02*
Y1247540D01*
X1333554Y1087520D02*
Y1247540D01*
X1261164D02*
X1333554D01*
X1342164Y1087520D02*
X1414554D01*
X1342164D02*
Y1247540D01*
X1414554Y1087520D02*
Y1247540D01*
X1342164D02*
X1414554D01*
X1000760Y1320038D02*
X1073150D01*
X1000760D02*
Y1480058D01*
X1073150Y1320038D02*
Y1480058D01*
X1000760D02*
X1073150D01*
X688086Y1344676D02*
X760476D01*
X688086D02*
Y1504696D01*
X760476Y1344676D02*
Y1504696D01*
X688086D02*
X760476D01*
X765810Y1343152D02*
X838200D01*
X765810D02*
Y1503172D01*
X838200Y1343152D02*
Y1503172D01*
X765810D02*
X838200D01*
X845058Y1343914D02*
X917448D01*
X845058D02*
Y1503934D01*
X917448Y1343914D02*
Y1503934D01*
X845058D02*
X917448D01*
X825696Y1578460D02*
X898086D01*
X825696D02*
Y1738480D01*
X898086Y1578460D02*
Y1738480D01*
X825696D02*
X898086D01*
X922020Y1343660D02*
X994410D01*
X922020D02*
Y1503680D01*
X994410Y1343660D02*
Y1503680D01*
X922020D02*
X994410D01*
X608330Y1344676D02*
X680720D01*
X608330D02*
Y1504696D01*
X680720Y1344676D02*
Y1504696D01*
X608330D02*
X680720D01*
X698000Y884235D02*
X708157Y869000D01*
Y884235D02*
X698000Y869000D01*
X713235D02*
X718313D01*
X715774D01*
Y884235D01*
X713235Y881696D01*
X1223000Y1594000D02*
X1207765D01*
Y1601617D01*
X1210304Y1604157D01*
X1215383D01*
X1217922Y1601617D01*
Y1594000D01*
Y1599078D02*
X1223000Y1604157D01*
X1210304Y1609235D02*
X1207765Y1611774D01*
Y1616853D01*
X1210304Y1619392D01*
X1212843D01*
X1215383Y1616853D01*
Y1614313D01*
Y1616853D01*
X1217922Y1619392D01*
X1220461D01*
X1223000Y1616853D01*
Y1611774D01*
X1220461Y1609235D01*
X1315000Y1549000D02*
Y1564235D01*
X1322617D01*
X1325157Y1561696D01*
Y1556617D01*
X1322617Y1554078D01*
X1315000D01*
X1320078D02*
X1325157Y1549000D01*
X1330235D02*
X1335313D01*
X1332774D01*
Y1564235D01*
X1330235Y1561696D01*
X513842Y1396238D02*
Y1411473D01*
X521460D01*
X523999Y1408934D01*
Y1403855D01*
X521460Y1401316D01*
X513842D01*
X539234Y1396238D02*
X529077D01*
X539234Y1406395D01*
Y1408934D01*
X536695Y1411473D01*
X531616D01*
X529077Y1408934D01*
X1478788Y1374140D02*
Y1389375D01*
X1486405D01*
X1488945Y1386836D01*
Y1381758D01*
X1486405Y1379218D01*
X1478788D01*
X1494023Y1374140D02*
X1499101D01*
X1496562D01*
Y1389375D01*
X1494023Y1386836D01*
D13*
X1342796Y1519422D02*
X1361527D01*
X1342796Y1488947D02*
X1361532D01*
X983996Y1105408D02*
X1032256D01*
X983996Y1013968D02*
Y1105408D01*
Y1013968D02*
X1032256D01*
Y1105408D01*
X883920Y1263650D02*
X995680D01*
Y1167130D02*
Y1263650D01*
X994410Y1165860D02*
X995680Y1167130D01*
X883920Y1165860D02*
X994410D01*
X883920D02*
Y1263650D01*
X1334372Y1459484D02*
X1335642D01*
X1334372Y1454404D02*
X1335642D01*
X1343262Y1456944D02*
Y1460754D01*
Y1453134D02*
Y1456944D01*
X1335642Y1454404D02*
Y1459484D01*
M02*
