G04*
G04 #@! TF.GenerationSoftware,Altium Limited,Altium Designer,18.0.11 (651)*
G04*
G04 Layer_Color=8421504*
%FSLAX44Y44*%
%MOMM*%
G71*
G01*
G75*
%ADD14R,0.6000X1.7500*%
%ADD15R,1.1000X1.7000*%
%ADD16R,1.7000X1.1000*%
%ADD17R,2.1590X1.7780*%
%ADD18R,1.7500X0.6000*%
%ADD19R,1.0000X0.7000*%
%ADD20R,1.8000X0.8500*%
%ADD21R,5.4000X4.5000*%
%ADD22R,0.2000X0.3000*%
D14*
X1282198Y1535430D02*
D03*
X1314698D02*
D03*
X1231652Y1605026D02*
D03*
X1264152D02*
D03*
D15*
X1282500Y1654000D02*
D03*
X1309500D02*
D03*
X1125500Y1675000D02*
D03*
X1152500D02*
D03*
X1262164Y1533144D02*
D03*
X1235164D02*
D03*
Y1574800D02*
D03*
X1262164D02*
D03*
X1309500Y1624000D02*
D03*
X1282500D02*
D03*
X1249934Y1456182D02*
D03*
X1222934D02*
D03*
X1310500Y1680000D02*
D03*
X1283500D02*
D03*
D16*
X1232000Y1630500D02*
D03*
Y1657500D02*
D03*
X1301000Y1570500D02*
D03*
Y1597500D02*
D03*
X1292860Y1482382D02*
D03*
Y1455382D02*
D03*
X906272Y1152182D02*
D03*
Y1125182D02*
D03*
X942594Y1152944D02*
D03*
Y1125944D02*
D03*
D17*
X1120394Y1535176D02*
D03*
X1079754D02*
D03*
X1151382Y1534160D02*
D03*
X1192022D02*
D03*
D18*
X1393190Y1518914D02*
D03*
Y1486414D02*
D03*
D19*
X1341796Y1504188D02*
D03*
X1362796Y1513688D02*
D03*
Y1494688D02*
D03*
D20*
X995934Y993388D02*
D03*
Y960888D02*
D03*
X976884Y1121670D02*
D03*
Y1154170D02*
D03*
D21*
X1064006Y1261652D02*
D03*
X1064106Y1146952D02*
D03*
D22*
X1339452Y1456944D02*
D03*
X1330452D02*
D03*
M02*
