G04*
G04 #@! TF.GenerationSoftware,Altium Limited,Altium Designer,18.0.11 (651)*
G04*
G04 Layer_Color=32768*
%FSLAX44Y44*%
%MOMM*%
G71*
G01*
G75*
%ADD72C,0.1000*%
%ADD74C,0.0500*%
D72*
X1298448Y1530430D02*
Y1540430D01*
X1293448Y1535430D02*
X1303448D01*
X1296000Y1649000D02*
Y1659000D01*
X1291000Y1654000D02*
X1301000D01*
X1276000Y1663500D02*
X1316000D01*
X1276000Y1644500D02*
X1316000D01*
X1276000D02*
Y1663500D01*
X1316000Y1644500D02*
Y1663500D01*
X1227000Y1644000D02*
X1237000D01*
X1232000Y1639000D02*
Y1649000D01*
X1222500Y1624000D02*
Y1664000D01*
X1241500Y1624000D02*
Y1664000D01*
X1222500Y1624000D02*
X1241500D01*
X1222500Y1664000D02*
X1241500D01*
X1247902Y1600026D02*
Y1610026D01*
X1242902Y1605026D02*
X1252902D01*
X1139000Y1670000D02*
Y1680000D01*
X1134000Y1675000D02*
X1144000D01*
X1119000Y1684500D02*
X1159000D01*
X1119000Y1665500D02*
X1159000D01*
X1119000D02*
Y1684500D01*
X1159000Y1665500D02*
Y1684500D01*
X1248664Y1528144D02*
Y1538144D01*
X1243664Y1533144D02*
X1253664D01*
X1228664Y1523644D02*
X1268664D01*
X1228664Y1542644D02*
X1268664D01*
Y1523644D02*
Y1542644D01*
X1228664Y1523644D02*
Y1542644D01*
X1248664Y1569800D02*
Y1579800D01*
X1243664Y1574800D02*
X1253664D01*
X1228664Y1584300D02*
X1268664D01*
X1228664Y1565300D02*
X1268664D01*
X1228664D02*
Y1584300D01*
X1268664Y1565300D02*
Y1584300D01*
X1296000Y1584000D02*
X1306000D01*
X1301000Y1579000D02*
Y1589000D01*
X1291500Y1564000D02*
Y1604000D01*
X1310500Y1564000D02*
Y1604000D01*
X1291500Y1564000D02*
X1310500D01*
X1291500Y1604000D02*
X1310500D01*
X1296000Y1619000D02*
Y1629000D01*
X1291000Y1624000D02*
X1301000D01*
X1276000Y1614500D02*
X1316000D01*
X1276000Y1633500D02*
X1316000D01*
Y1614500D02*
Y1633500D01*
X1276000Y1614500D02*
Y1633500D01*
X1095074Y1535176D02*
X1105074D01*
X1100074Y1530176D02*
Y1540176D01*
X1287860Y1468882D02*
X1297860D01*
X1292860Y1463882D02*
Y1473882D01*
X1302360Y1448882D02*
Y1488882D01*
X1283360Y1448882D02*
Y1488882D01*
X1302360D01*
X1283360Y1448882D02*
X1302360D01*
X1393190Y1497664D02*
Y1507664D01*
X1388190Y1502664D02*
X1398190D01*
X1236434Y1451182D02*
Y1461182D01*
X1231434Y1456182D02*
X1241434D01*
X1216434Y1446682D02*
X1256434D01*
X1216434Y1465682D02*
X1256434D01*
Y1446682D02*
Y1465682D01*
X1216434Y1446682D02*
Y1465682D01*
X896772Y1158682D02*
X915772D01*
X896772Y1118682D02*
X915772D01*
Y1158682D01*
X896772Y1118682D02*
Y1158682D01*
X906272Y1133682D02*
Y1143682D01*
X901272Y1138682D02*
X911272D01*
X933094Y1159444D02*
X952094D01*
X933094Y1119444D02*
X952094D01*
Y1159444D01*
X933094Y1119444D02*
Y1159444D01*
X942594Y1134444D02*
Y1144444D01*
X937594Y1139444D02*
X947594D01*
X1317000Y1670500D02*
Y1689500D01*
X1277000Y1670500D02*
Y1689500D01*
Y1670500D02*
X1317000D01*
X1277000Y1689500D02*
X1317000D01*
X1292000Y1680000D02*
X1302000D01*
X1297000Y1675000D02*
Y1685000D01*
X1171702Y1529160D02*
Y1539160D01*
X1166702Y1534160D02*
X1176702D01*
D74*
X1278448Y1545430D02*
X1318448D01*
X1278448Y1525430D02*
X1318448D01*
X1278448D02*
Y1545430D01*
X1318448Y1525430D02*
Y1545430D01*
X1227902Y1615026D02*
X1267902D01*
X1227902Y1595026D02*
X1267902D01*
X1227902D02*
Y1615026D01*
X1267902Y1595026D02*
Y1615026D01*
X1136074Y1515176D02*
Y1555176D01*
X1064074Y1515176D02*
Y1555176D01*
Y1515176D02*
X1136074D01*
X1064074Y1555176D02*
X1136074D01*
X1383190Y1522664D02*
X1403190D01*
X1383190Y1482664D02*
X1403190D01*
Y1522664D01*
X1383190Y1482664D02*
Y1522664D01*
X1135702Y1554160D02*
X1207702D01*
X1135702Y1514160D02*
X1207702D01*
X1135702D02*
Y1554160D01*
X1207702Y1514160D02*
Y1554160D01*
M02*
