G04*
G04 #@! TF.GenerationSoftware,Altium Limited,Altium Designer,18.0.11 (651)*
G04*
G04 Layer_Color=16711935*
%FSLAX44Y44*%
%MOMM*%
G71*
G01*
G75*
%ADD72C,0.1000*%
%ADD73R,0.6187X2.9200*%
D72*
X1283448Y1542680D02*
X1313448D01*
X1283448Y1528180D02*
X1313448D01*
X1283448D02*
Y1542680D01*
X1313448Y1528180D02*
Y1542680D01*
X1280178Y1675494D02*
X1314178D01*
X1280178Y1657494D02*
X1314178D01*
X1280178D02*
Y1675494D01*
X1314178Y1657494D02*
Y1675494D01*
X1222900Y1636756D02*
Y1670756D01*
X1240900Y1636756D02*
Y1670756D01*
X1222900Y1636756D02*
X1240900D01*
X1222900Y1670756D02*
X1240900D01*
X1232902Y1612276D02*
X1262902D01*
X1232902Y1597776D02*
X1262902D01*
X1232902D02*
Y1612276D01*
X1262902Y1597776D02*
Y1612276D01*
X1135744Y1666004D02*
Y1700004D01*
X1117744Y1666004D02*
Y1700004D01*
X1135744D01*
X1117744Y1666004D02*
X1135744D01*
X1231664Y1524144D02*
X1265664D01*
X1231664Y1542144D02*
X1265664D01*
Y1524144D02*
Y1542144D01*
X1231664Y1524144D02*
Y1542144D01*
Y1583800D02*
X1265664D01*
X1231664Y1565800D02*
X1265664D01*
X1231664D02*
Y1583800D01*
X1265664Y1565800D02*
Y1583800D01*
X1290972Y1576342D02*
Y1610342D01*
X1308972Y1576342D02*
Y1610342D01*
X1290972Y1576342D02*
X1308972D01*
X1290972Y1610342D02*
X1308972D01*
X1279924Y1623966D02*
X1313924D01*
X1279924Y1641966D02*
X1313924D01*
Y1623966D02*
Y1641966D01*
X1279924Y1623966D02*
Y1641966D01*
X1123074Y1520576D02*
Y1549776D01*
X1077074Y1520576D02*
Y1549776D01*
Y1520576D02*
X1123074D01*
X1077074Y1549776D02*
X1123074D01*
X1301860Y1451882D02*
Y1485882D01*
X1283860Y1451882D02*
Y1485882D01*
X1301860D01*
X1283860Y1451882D02*
X1301860D01*
X1385940Y1517664D02*
X1400440D01*
X1385940Y1487664D02*
X1400440D01*
Y1517664D01*
X1385940Y1487664D02*
Y1517664D01*
X1219434Y1447182D02*
X1253434D01*
X1219434Y1465182D02*
X1253434D01*
Y1447182D02*
Y1465182D01*
X1219434Y1447182D02*
Y1465182D01*
X986934Y994138D02*
X1004934D01*
X986934Y960138D02*
X1004934D01*
Y994138D01*
X986934Y960138D02*
Y994138D01*
X897272Y1155682D02*
X915272D01*
X897272Y1121682D02*
X915272D01*
Y1155682D01*
X897272Y1121682D02*
Y1155682D01*
X933594Y1156444D02*
X951594D01*
X933594Y1122444D02*
X951594D01*
Y1156444D01*
X933594Y1122444D02*
Y1156444D01*
X967884Y1120920D02*
X985884D01*
X967884Y1154920D02*
X985884D01*
X967884Y1120920D02*
Y1154920D01*
X985884Y1120920D02*
Y1154920D01*
X1314178Y1684672D02*
Y1702672D01*
X1280178Y1684672D02*
Y1702672D01*
Y1684672D02*
X1314178D01*
X1280178Y1702672D02*
X1314178D01*
X1148702Y1548760D02*
X1194702D01*
X1148702Y1519560D02*
X1194702D01*
X1148702D02*
Y1548760D01*
X1194702Y1519560D02*
Y1548760D01*
D73*
X1080168Y1535176D02*
D03*
X1151796Y1534160D02*
D03*
M02*
