G04*
G04 #@! TF.GenerationSoftware,Altium Limited,Altium Designer,18.0.11 (651)*
G04*
G04 Layer_Color=255*
%FSLAX44Y44*%
%MOMM*%
G71*
G01*
G75*
%ADD14R,0.6000X1.7500*%
%ADD15R,1.1000X1.7000*%
%ADD16R,1.7000X1.1000*%
%ADD17R,2.1590X1.7780*%
%ADD18R,1.7500X0.6000*%
%ADD19R,1.0000X0.7000*%
%ADD20R,1.8000X0.8500*%
%ADD21R,5.4000X4.5000*%
%ADD22R,0.2000X0.3000*%
%ADD57C,2.1000*%
%ADD58R,1.5000X1.5000*%
%ADD59C,1.5000*%
%ADD60C,3.0480*%
%ADD61C,2.0000*%
%ADD62C,3.0000*%
%ADD63C,2.3000*%
%ADD64R,1.5000X1.5000*%
%ADD65O,2.2860X1.7000*%
%ADD66R,2.2860X1.7000*%
%ADD67O,1.5240X2.2860*%
D14*
X1282198Y1535430D02*
D03*
X1314698D02*
D03*
X1231652Y1605026D02*
D03*
X1264152D02*
D03*
D15*
X1283678Y1666494D02*
D03*
X1310678D02*
D03*
X1262164Y1533144D02*
D03*
X1235164D02*
D03*
Y1574800D02*
D03*
X1262164D02*
D03*
X1310424Y1632966D02*
D03*
X1283424D02*
D03*
X1249934Y1456182D02*
D03*
X1222934D02*
D03*
X1310678Y1693672D02*
D03*
X1283678D02*
D03*
D16*
X1231900Y1640256D02*
D03*
Y1667256D02*
D03*
X1126744Y1696504D02*
D03*
Y1669504D02*
D03*
X1299972Y1579842D02*
D03*
Y1606842D02*
D03*
X1292860Y1482382D02*
D03*
Y1455382D02*
D03*
X906272Y1152182D02*
D03*
Y1125182D02*
D03*
X942594Y1152944D02*
D03*
Y1125944D02*
D03*
D17*
X1120394Y1535176D02*
D03*
X1079754D02*
D03*
X1151382Y1534160D02*
D03*
X1192022D02*
D03*
D18*
X1393190Y1518914D02*
D03*
Y1486414D02*
D03*
D19*
X1341796Y1504188D02*
D03*
X1362796Y1513688D02*
D03*
Y1494688D02*
D03*
D20*
X995934Y993388D02*
D03*
Y960888D02*
D03*
X976884Y1121670D02*
D03*
Y1154170D02*
D03*
D21*
X1064006Y1261652D02*
D03*
X1064106Y1146952D02*
D03*
D22*
X1339452Y1456944D02*
D03*
X1330452D02*
D03*
D57*
X1182000Y807400D02*
D03*
X1147000D02*
D03*
X1112000D02*
D03*
X1077000D02*
D03*
X1042000D02*
D03*
X1007000D02*
D03*
X972000D02*
D03*
X937000D02*
D03*
X902000D02*
D03*
X867000D02*
D03*
Y842400D02*
D03*
X1182000D02*
D03*
X1147000D02*
D03*
X1112000D02*
D03*
X1077000D02*
D03*
X1042000D02*
D03*
X1007000D02*
D03*
X972000D02*
D03*
X937000D02*
D03*
X902000D02*
D03*
D58*
X1304544Y1735074D02*
D03*
D59*
X1279144D02*
D03*
X1253744D02*
D03*
X1228344D02*
D03*
X1202944D02*
D03*
X1177544D02*
D03*
X1152144D02*
D03*
X1126744D02*
D03*
X1101344D02*
D03*
X1075944D02*
D03*
X1050544D02*
D03*
X1025144D02*
D03*
X999744D02*
D03*
X974344D02*
D03*
X948944D02*
D03*
X923544D02*
D03*
X525000Y1324200D02*
D03*
Y1146400D02*
D03*
Y1171800D02*
D03*
Y1197200D02*
D03*
Y1222600D02*
D03*
Y1248000D02*
D03*
Y1273400D02*
D03*
Y1298800D02*
D03*
Y1349600D02*
D03*
X1490000Y1200400D02*
D03*
Y1225800D02*
D03*
Y1251200D02*
D03*
Y1276600D02*
D03*
Y1302000D02*
D03*
Y1327400D02*
D03*
Y1352800D02*
D03*
D60*
X1364996Y1409700D02*
D03*
X1399032D02*
D03*
X1364996Y1310640D02*
D03*
X1399032D02*
D03*
X695706Y1035812D02*
D03*
X729742D02*
D03*
X695706Y936752D02*
D03*
X729742D02*
D03*
X617474Y1035812D02*
D03*
X651510D02*
D03*
X617474Y936752D02*
D03*
X651510D02*
D03*
X772160Y1036320D02*
D03*
X806196D02*
D03*
X772160Y937260D02*
D03*
X806196D02*
D03*
X849376Y1037082D02*
D03*
X883412D02*
D03*
X849376Y938022D02*
D03*
X883412D02*
D03*
X926084Y1036320D02*
D03*
X960120D02*
D03*
X926084Y937260D02*
D03*
X960120D02*
D03*
X826000Y1222060D02*
D03*
X860036D02*
D03*
X826000Y1123000D02*
D03*
X860036D02*
D03*
X746964Y1222060D02*
D03*
X781000D02*
D03*
X746964Y1123000D02*
D03*
X781000D02*
D03*
X1283208Y1037336D02*
D03*
X1317244D02*
D03*
X1283208Y938276D02*
D03*
X1317244D02*
D03*
X1363218Y1037336D02*
D03*
X1397254D02*
D03*
X1363218Y938276D02*
D03*
X1397254D02*
D03*
X1203706Y1038352D02*
D03*
X1237742D02*
D03*
X1203706Y939292D02*
D03*
X1237742D02*
D03*
X956564Y1674368D02*
D03*
X990600D02*
D03*
X956564Y1575308D02*
D03*
X990600D02*
D03*
X607964Y1708000D02*
D03*
X642000D02*
D03*
X607964Y1608940D02*
D03*
X642000D02*
D03*
X686562Y1708150D02*
D03*
X720598D02*
D03*
X686562Y1609090D02*
D03*
X720598D02*
D03*
X766064Y1708658D02*
D03*
X800100D02*
D03*
X766064Y1609598D02*
D03*
X800100D02*
D03*
X1126490Y1037336D02*
D03*
X1160526D02*
D03*
X1126490Y938276D02*
D03*
X1160526D02*
D03*
X1201468Y1217060D02*
D03*
X1235504D02*
D03*
X1201468Y1118000D02*
D03*
X1235504D02*
D03*
X1280468Y1217060D02*
D03*
X1314504D02*
D03*
X1280468Y1118000D02*
D03*
X1314504D02*
D03*
X1361468Y1217060D02*
D03*
X1395504D02*
D03*
X1361468Y1118000D02*
D03*
X1395504D02*
D03*
X1020064Y1449578D02*
D03*
X1054100D02*
D03*
X1020064Y1350518D02*
D03*
X1054100D02*
D03*
X707390Y1474216D02*
D03*
X741426D02*
D03*
X707390Y1375156D02*
D03*
X741426D02*
D03*
X785114Y1472692D02*
D03*
X819150D02*
D03*
X785114Y1373632D02*
D03*
X819150D02*
D03*
X864362Y1473454D02*
D03*
X898398D02*
D03*
X864362Y1374394D02*
D03*
X898398D02*
D03*
X849000Y1708658D02*
D03*
X883036D02*
D03*
X849000Y1609598D02*
D03*
X883036D02*
D03*
X941324Y1473200D02*
D03*
X975360D02*
D03*
X941324Y1374140D02*
D03*
X975360D02*
D03*
X627634Y1474216D02*
D03*
X661670D02*
D03*
X627634Y1375156D02*
D03*
X661670D02*
D03*
D61*
X1296578Y1386548D02*
D03*
X1221578D02*
D03*
D62*
X1209078Y1324048D02*
D03*
X1309078D02*
D03*
D63*
X1125220Y1583182D02*
D03*
X1176020D02*
D03*
Y1633982D02*
D03*
X1125220D02*
D03*
D64*
X525000Y1375000D02*
D03*
X1490000Y1175000D02*
D03*
D65*
X1008126Y1034288D02*
D03*
Y1059688D02*
D03*
D66*
Y1085088D02*
D03*
D67*
X914400Y1242060D02*
D03*
X939800D02*
D03*
X965200D02*
D03*
M02*
