G04*
G04 #@! TF.GenerationSoftware,Altium Limited,Altium Designer,18.0.11 (651)*
G04*
G04 Layer_Color=16711935*
%FSLAX44Y44*%
%MOMM*%
G71*
G01*
G75*
%ADD11C,0.2540*%
%ADD71C,0.1524*%
D11*
X508000Y693420D02*
X523240Y698500D01*
X508000Y693420D02*
X523240Y688340D01*
X1492760D02*
X1508000Y693420D01*
X1492760Y698500D02*
X1508000Y693420D01*
X508000D02*
X924966D01*
X1082906D02*
X1508000D01*
X508000Y690880D02*
Y758190D01*
X1508000Y690880D02*
Y758190D01*
X401320Y777240D02*
X406400Y762000D01*
X411480Y777240D01*
X406400Y1762000D02*
X411480Y1746760D01*
X401320D02*
X406400Y1762000D01*
Y762000D02*
Y1178966D01*
Y1336906D02*
Y1762000D01*
X403860Y762000D02*
X504190D01*
X403860Y1762000D02*
X504190D01*
D71*
X929030Y684278D02*
X934109D01*
X931569D01*
Y699513D01*
X929030Y696974D01*
X941726D02*
X944265Y699513D01*
X949344D01*
X951883Y696974D01*
Y686818D01*
X949344Y684278D01*
X944265D01*
X941726Y686818D01*
Y696974D01*
X956961D02*
X959500Y699513D01*
X964579D01*
X967118Y696974D01*
Y686818D01*
X964579Y684278D01*
X959500D01*
X956961Y686818D01*
Y696974D01*
X972196Y684278D02*
Y686818D01*
X974735D01*
Y684278D01*
X972196D01*
X984892Y696974D02*
X987431Y699513D01*
X992510D01*
X995049Y696974D01*
Y686818D01*
X992510Y684278D01*
X987431D01*
X984892Y686818D01*
Y696974D01*
X1000127D02*
X1002666Y699513D01*
X1007745D01*
X1010284Y696974D01*
Y686818D01*
X1007745Y684278D01*
X1002666D01*
X1000127Y686818D01*
Y696974D01*
X1035676Y684278D02*
X1030597Y689357D01*
Y694435D01*
X1035676Y699513D01*
X1043293Y684278D02*
Y694435D01*
X1045833D01*
X1048372Y691896D01*
Y684278D01*
Y691896D01*
X1050911Y694435D01*
X1053450Y691896D01*
Y684278D01*
X1058528D02*
Y694435D01*
X1061068D01*
X1063607Y691896D01*
Y684278D01*
Y691896D01*
X1066146Y694435D01*
X1068685Y691896D01*
Y684278D01*
X1073763D02*
X1078842Y689357D01*
Y694435D01*
X1073763Y699513D01*
X415541Y1183030D02*
Y1188109D01*
Y1185569D01*
X400307D01*
X402846Y1183030D01*
Y1195726D02*
X400307Y1198265D01*
Y1203344D01*
X402846Y1205883D01*
X413002D01*
X415541Y1203344D01*
Y1198265D01*
X413002Y1195726D01*
X402846D01*
Y1210961D02*
X400307Y1213500D01*
Y1218579D01*
X402846Y1221118D01*
X413002D01*
X415541Y1218579D01*
Y1213500D01*
X413002Y1210961D01*
X402846D01*
X415541Y1226196D02*
X413002D01*
Y1228736D01*
X415541D01*
Y1226196D01*
X402846Y1238892D02*
X400307Y1241431D01*
Y1246510D01*
X402846Y1249049D01*
X413002D01*
X415541Y1246510D01*
Y1241431D01*
X413002Y1238892D01*
X402846D01*
Y1254127D02*
X400307Y1256666D01*
Y1261745D01*
X402846Y1264284D01*
X413002D01*
X415541Y1261745D01*
Y1256666D01*
X413002Y1254127D01*
X402846D01*
X415541Y1289676D02*
X410463Y1284597D01*
X405385D01*
X400307Y1289676D01*
X415541Y1297293D02*
X405385D01*
Y1299832D01*
X407924Y1302372D01*
X415541D01*
X407924D01*
X405385Y1304911D01*
X407924Y1307450D01*
X415541D01*
Y1312528D02*
X405385D01*
Y1315067D01*
X407924Y1317607D01*
X415541D01*
X407924D01*
X405385Y1320146D01*
X407924Y1322685D01*
X415541D01*
Y1327763D02*
X410463Y1332842D01*
X405385D01*
X400307Y1327763D01*
M02*
