G04*
G04 #@! TF.GenerationSoftware,Altium Limited,Altium Designer,18.0.11 (651)*
G04*
G04 Layer_Color=255*
%FSLAX25Y25*%
%MOIN*%
G70*
G01*
G75*
%ADD91C,0.05906*%
%ADD92R,0.05906X0.05906*%
%ADD93C,0.08268*%
%ADD94O,0.11811X0.08858*%
%ADD95R,0.11811X0.08858*%
%ADD96R,0.06299X0.06299*%
%ADD97C,0.06299*%
D91*
X579232Y585098D02*
D03*
Y575098D02*
D03*
Y565098D02*
D03*
X586614Y472598D02*
D03*
Y482598D02*
D03*
Y492598D02*
D03*
Y502598D02*
D03*
Y512598D02*
D03*
Y522598D02*
D03*
Y532598D02*
D03*
X206693Y521339D02*
D03*
Y451339D02*
D03*
Y461339D02*
D03*
Y471339D02*
D03*
Y481339D02*
D03*
Y491339D02*
D03*
Y501339D02*
D03*
Y511339D02*
D03*
Y531339D02*
D03*
D92*
X579232Y555098D02*
D03*
X586614Y462598D02*
D03*
X206693Y541339D02*
D03*
D93*
X465354Y317874D02*
D03*
X451575D02*
D03*
X437795D02*
D03*
X424016D02*
D03*
X410236D02*
D03*
X396457D02*
D03*
X382677D02*
D03*
X368898D02*
D03*
X355118D02*
D03*
X341339D02*
D03*
Y331653D02*
D03*
X465354D02*
D03*
X451575D02*
D03*
X437795D02*
D03*
X424016D02*
D03*
X410236D02*
D03*
X396457D02*
D03*
X382677D02*
D03*
X368898D02*
D03*
X355118D02*
D03*
D94*
X481299Y448189D02*
D03*
Y437992D02*
D03*
X402559Y445866D02*
D03*
Y435669D02*
D03*
X568898Y434410D02*
D03*
Y424213D02*
D03*
D95*
X481299Y427795D02*
D03*
X402559Y425472D02*
D03*
X568898Y414016D02*
D03*
D96*
X474252Y669134D02*
D03*
D97*
X484252D02*
D03*
X494252D02*
D03*
Y679134D02*
D03*
X484252D02*
D03*
X474252D02*
D03*
M02*
