G04*
G04 #@! TF.GenerationSoftware,Altium Limited,Altium Designer,18.0.11 (651)*
G04*
G04 Layer_Color=32768*
%FSLAX25Y25*%
%MOIN*%
G70*
G01*
G75*
%ADD100C,0.00394*%
%ADD101C,0.00197*%
D100*
X556299Y628937D02*
X563779D01*
X556299Y613189D02*
X563779D01*
Y628937D01*
X556299Y613189D02*
Y628937D01*
X560039Y619095D02*
Y623032D01*
X558071Y621063D02*
X562008D01*
X405512Y671063D02*
Y675000D01*
X403543Y673032D02*
X407480D01*
X422933Y574114D02*
Y578051D01*
X420965Y576083D02*
X424902D01*
X336614Y418405D02*
Y425886D01*
X320866Y418405D02*
Y425886D01*
Y418405D02*
X336614D01*
X320866Y425886D02*
X336614D01*
X326772Y422146D02*
X330709D01*
X328740Y420177D02*
Y424114D01*
X332283Y399508D02*
X336221D01*
X334252Y397539D02*
Y401476D01*
X337992Y391634D02*
Y407382D01*
X330512Y391634D02*
Y407382D01*
X337992D01*
X330512Y391634D02*
X337992D01*
X317717Y399508D02*
X321654D01*
X319685Y397539D02*
Y401476D01*
X323425Y391634D02*
Y407382D01*
X315945Y391634D02*
Y407382D01*
X323425D01*
X315945Y391634D02*
X323425D01*
X282480Y399606D02*
X286417D01*
X284449Y397638D02*
Y401575D01*
X288189Y391732D02*
Y407480D01*
X280709Y391732D02*
Y407480D01*
X288189D01*
X280709Y391732D02*
X288189D01*
X496063Y539567D02*
Y547047D01*
X480315Y539567D02*
Y547047D01*
Y539567D02*
X496063D01*
X480315Y547047D02*
X496063D01*
X486221Y543307D02*
X490158D01*
X488189Y541339D02*
Y545276D01*
X488976Y568898D02*
X492913D01*
X490945Y566929D02*
Y570866D01*
X476378Y539567D02*
Y547047D01*
X460630Y539567D02*
Y547047D01*
Y539567D02*
X476378D01*
X460630Y547047D02*
X476378D01*
X466535Y543307D02*
X470472D01*
X468504Y541339D02*
Y545276D01*
X457677Y554331D02*
Y561811D01*
X473425Y554331D02*
Y561811D01*
X457677D02*
X473425D01*
X457677Y554331D02*
X473425D01*
X463583Y558071D02*
X467520D01*
X465551Y556102D02*
Y560039D01*
X379134Y576772D02*
X386614D01*
X379134Y561024D02*
X386614D01*
Y576772D01*
X379134Y561024D02*
Y576772D01*
X382874Y566929D02*
Y570866D01*
X380906Y568898D02*
X384842D01*
X408661Y611221D02*
X416142D01*
X408661Y626968D02*
X416142D01*
X408661Y611221D02*
Y626968D01*
X416142Y611221D02*
Y626968D01*
X412402Y617126D02*
Y621063D01*
X410433Y619095D02*
X414370D01*
X291535Y648622D02*
X299016D01*
X291535Y632874D02*
X299016D01*
Y648622D01*
X291535Y632874D02*
Y648622D01*
X295276Y638779D02*
Y642717D01*
X293307Y640748D02*
X297244D01*
X276772Y632874D02*
X284252D01*
X276772Y648622D02*
X284252D01*
X276772Y632874D02*
Y648622D01*
X284252Y632874D02*
Y648622D01*
X280512Y638779D02*
Y642717D01*
X278543Y640748D02*
X282480D01*
X297244Y618307D02*
Y625787D01*
X281496Y618307D02*
Y625787D01*
Y618307D02*
X297244D01*
X281496Y625787D02*
X297244D01*
X287402Y622047D02*
X291339D01*
X289370Y620079D02*
Y624016D01*
X293307Y479528D02*
Y487008D01*
X277559Y479528D02*
Y487008D01*
Y479528D02*
X293307D01*
X277559Y487008D02*
X293307D01*
X283465Y483268D02*
X287402D01*
X285433Y481299D02*
Y485236D01*
X268701Y340551D02*
Y344488D01*
X266732Y342520D02*
X270669D01*
X262008Y559055D02*
X269488D01*
X262008Y574803D02*
X269488D01*
X262008Y559055D02*
Y574803D01*
X269488Y559055D02*
Y574803D01*
X265748Y564961D02*
Y568898D01*
X263779Y566929D02*
X267717D01*
X275787Y559055D02*
X283268D01*
X275787Y574803D02*
X283268D01*
X275787Y559055D02*
Y574803D01*
X283268Y559055D02*
Y574803D01*
X279528Y564961D02*
Y568898D01*
X277559Y566929D02*
X281496D01*
X288583Y574803D02*
X296063D01*
X288583Y559055D02*
X296063D01*
Y574803D01*
X288583Y559055D02*
Y574803D01*
X292323Y564961D02*
Y568898D01*
X290354Y566929D02*
X294291D01*
X287598Y600394D02*
X295079D01*
X287598Y584646D02*
X295079D01*
Y600394D01*
X287598Y584646D02*
Y600394D01*
X291339Y590551D02*
Y594488D01*
X289370Y592520D02*
X293307D01*
X471457Y511811D02*
Y515748D01*
X469488Y513779D02*
X473425D01*
X439961Y377953D02*
Y381890D01*
X437992Y379921D02*
X441929D01*
X439961Y417323D02*
Y421260D01*
X437992Y419291D02*
X441929D01*
X452953Y444882D02*
X460433D01*
X452953Y429134D02*
X460433D01*
Y444882D01*
X452953Y429134D02*
Y444882D01*
X456693Y435039D02*
Y438976D01*
X454724Y437008D02*
X458661D01*
X438189Y429134D02*
X445669D01*
X438189Y444882D02*
X445669D01*
X438189Y429134D02*
Y444882D01*
X445669Y429134D02*
Y444882D01*
X441929Y435039D02*
Y438976D01*
X439961Y437008D02*
X443898D01*
X366339Y429724D02*
X373819D01*
X366339Y445472D02*
X373819D01*
X366339Y429724D02*
Y445472D01*
X373819Y429724D02*
Y445472D01*
X370079Y435630D02*
Y439567D01*
X368110Y437598D02*
X372047D01*
X526575Y365158D02*
Y369094D01*
X524606Y367126D02*
X528543D01*
X361221Y378937D02*
Y382874D01*
X359252Y380906D02*
X363189D01*
X381102Y445866D02*
X388583D01*
X381102Y430118D02*
X388583D01*
Y445866D01*
X381102Y430118D02*
Y445866D01*
X384842Y436024D02*
Y439961D01*
X382874Y437992D02*
X386811D01*
X526772Y417323D02*
X534252D01*
X526772Y433071D02*
X534252D01*
X526772Y417323D02*
Y433071D01*
X534252Y417323D02*
Y433071D01*
X530512Y423228D02*
Y427165D01*
X528543Y425197D02*
X532480D01*
X371063Y420276D02*
X375000D01*
X373031Y418307D02*
Y422244D01*
X544488Y433071D02*
X551968D01*
X544488Y417323D02*
X551968D01*
Y433071D01*
X544488Y417323D02*
Y433071D01*
X548228Y423228D02*
Y427165D01*
X546260Y425197D02*
X550197D01*
X523622Y404528D02*
X527559D01*
X525591Y402559D02*
Y406496D01*
X554134Y594488D02*
Y598425D01*
X552165Y596457D02*
X556102D01*
X546260Y592717D02*
X562008D01*
X546260Y600197D02*
X562008D01*
Y592717D02*
Y600197D01*
X546260Y592717D02*
Y600197D01*
X540354Y621063D02*
X544291D01*
X542323Y619095D02*
Y623032D01*
X546063Y613189D02*
Y628937D01*
X538583Y613189D02*
Y628937D01*
X546063D01*
X538583Y613189D02*
X546063D01*
X326772Y660433D02*
Y664370D01*
X324803Y662402D02*
X328740D01*
X318898Y658661D02*
X334646D01*
X318898Y666142D02*
X334646D01*
Y658661D02*
Y666142D01*
X318898Y658661D02*
Y666142D01*
X436024Y619095D02*
X439961D01*
X437992Y617126D02*
Y621063D01*
X434252Y611221D02*
Y626968D01*
X441732Y611221D02*
Y626968D01*
X434252Y611221D02*
X441732D01*
X434252Y626968D02*
X441732D01*
X424213Y619685D02*
X428150D01*
X426181Y617717D02*
Y621654D01*
X422441Y611811D02*
Y627559D01*
X429921Y611811D02*
Y627559D01*
X422441Y611811D02*
X429921D01*
X422441Y627559D02*
X429921D01*
X476378Y618701D02*
X480315D01*
X478346Y616732D02*
Y620669D01*
X482087Y610827D02*
Y626575D01*
X474606Y610827D02*
Y626575D01*
X482087D01*
X474606Y610827D02*
X482087D01*
X339567Y565945D02*
X343504D01*
X341535Y563976D02*
Y567913D01*
X268701Y364173D02*
Y368110D01*
X266732Y366142D02*
X270669D01*
X260827Y369882D02*
X276575D01*
X260827Y362402D02*
X276575D01*
X260827D02*
Y369882D01*
X276575Y362402D02*
Y369882D01*
X460630Y607283D02*
X464567D01*
X462598Y605315D02*
Y609252D01*
X458858Y599409D02*
Y615158D01*
X466339Y599409D02*
Y615158D01*
X458858Y599409D02*
X466339D01*
X458858Y615158D02*
X466339D01*
X508858Y618110D02*
X512795D01*
X510827Y616142D02*
Y620079D01*
X514567Y610236D02*
Y625984D01*
X507087Y610236D02*
Y625984D01*
X514567D01*
X507087Y610236D02*
X514567D01*
X247047Y485236D02*
X250984D01*
X249016Y483268D02*
Y487205D01*
X252756Y477362D02*
Y493110D01*
X245276Y477362D02*
Y493110D01*
X252756D01*
X245276Y477362D02*
X252756D01*
X288386Y503937D02*
X292323D01*
X290354Y501968D02*
Y505905D01*
X286614Y496063D02*
Y511811D01*
X294094Y496063D02*
Y511811D01*
X286614Y496063D02*
X294094D01*
X286614Y511811D02*
X294094D01*
X244094Y621063D02*
X248031D01*
X246063Y619095D02*
Y623032D01*
X249803Y613189D02*
Y628937D01*
X242323Y613189D02*
Y628937D01*
X249803D01*
X242323Y613189D02*
X249803D01*
X266732Y501968D02*
Y505905D01*
X264764Y503937D02*
X268701D01*
X258858Y500197D02*
X274606D01*
X258858Y507677D02*
X274606D01*
Y500197D02*
Y507677D01*
X258858Y500197D02*
Y507677D01*
X345472Y592520D02*
Y596457D01*
X343504Y594488D02*
X347441D01*
X337598Y598228D02*
X353346D01*
X337598Y590748D02*
X353346D01*
X337598D02*
Y598228D01*
X353346Y590748D02*
Y598228D01*
X494095Y618110D02*
X498032D01*
X496063Y616142D02*
Y620079D01*
X492323Y610236D02*
Y625984D01*
X499803Y610236D02*
Y625984D01*
X492323Y610236D02*
X499803D01*
X492323Y625984D02*
X499803D01*
X374016Y502953D02*
X377953D01*
X375984Y500984D02*
Y504921D01*
X428051Y496949D02*
X431988D01*
X430020Y494980D02*
Y498917D01*
X426279Y489075D02*
Y504823D01*
X433760Y489075D02*
Y504823D01*
X426279Y489075D02*
X433760D01*
X426279Y504823D02*
X433760D01*
X417323Y521654D02*
Y525591D01*
X415354Y523622D02*
X419291D01*
X409449Y527362D02*
X425197D01*
X409449Y519882D02*
X425197D01*
X409449D02*
Y527362D01*
X425197Y519882D02*
Y527362D01*
D101*
X380709Y691634D02*
X429921D01*
X380709Y657677D02*
X429921D01*
X380709D02*
Y691634D01*
X429921Y657677D02*
Y691634D01*
X400591Y553740D02*
X445276D01*
X400591Y598425D02*
X445276D01*
Y553740D02*
Y598425D01*
X400591Y553740D02*
Y598425D01*
X506201Y557874D02*
Y593701D01*
X475689Y557874D02*
Y593701D01*
Y557874D02*
X506201D01*
X475689Y593701D02*
X506201D01*
X252461Y330906D02*
X284941D01*
X252461Y354134D02*
X284941D01*
Y330906D02*
Y354134D01*
X252461Y330906D02*
Y354134D01*
X449114Y491437D02*
X493799D01*
X449114Y536122D02*
X493799D01*
X449114Y491437D02*
Y536122D01*
X493799Y491437D02*
Y536122D01*
X432087Y383858D02*
X447835D01*
X432087Y375984D02*
X447835D01*
X432087D02*
Y383858D01*
X447835Y375984D02*
Y383858D01*
X432087Y423228D02*
X447835D01*
X432087Y415354D02*
X447835D01*
X432087D02*
Y423228D01*
X447835Y415354D02*
Y423228D01*
X518701Y371063D02*
X534449D01*
X518701Y363189D02*
X534449D01*
X518701D02*
Y371063D01*
X534449Y363189D02*
Y371063D01*
X353346Y384842D02*
X369094D01*
X353346Y376969D02*
X369094D01*
X353346D02*
Y384842D01*
X369094Y376969D02*
Y384842D01*
X380906Y416339D02*
Y424213D01*
X365158Y416339D02*
Y424213D01*
Y416339D02*
X380906D01*
X365158Y424213D02*
X380906D01*
X533465Y400591D02*
Y408465D01*
X517717Y400591D02*
Y408465D01*
Y400591D02*
X533465D01*
X517717Y408465D02*
X533465D01*
X362795Y596654D02*
X393110D01*
X362795Y633661D02*
X393110D01*
X362795Y596654D02*
Y633661D01*
X393110Y596654D02*
Y633661D01*
X326378Y547441D02*
Y584449D01*
X356693Y547441D02*
Y584449D01*
X326378Y547441D02*
X356693D01*
X326378Y584449D02*
X356693D01*
X351181Y478150D02*
Y527756D01*
X400787Y478150D02*
Y527756D01*
X351181D02*
X400787D01*
X351181Y478150D02*
X400787D01*
M02*
