G04*
G04 #@! TF.GenerationSoftware,Altium Limited,Altium Designer,18.0.11 (651)*
G04*
G04 Layer_Color=16711935*
%FSLAX25Y25*%
%MOIN*%
G70*
G01*
G75*
%ADD72R,0.06706X0.06706*%
%ADD73C,0.06706*%
%ADD74C,0.00800*%
%ADD75C,0.09068*%
%ADD76O,0.12611X0.09658*%
%ADD77R,0.12611X0.09658*%
%ADD78R,0.07099X0.07099*%
%ADD79C,0.07099*%
%ADD80C,0.05800*%
%ADD81C,0.16548*%
D72*
X586614Y462598D02*
D03*
X206693Y541339D02*
D03*
D73*
X586614Y472598D02*
D03*
Y482598D02*
D03*
Y492598D02*
D03*
Y502598D02*
D03*
Y512598D02*
D03*
Y522598D02*
D03*
Y532598D02*
D03*
X206693Y521339D02*
D03*
Y451339D02*
D03*
Y461339D02*
D03*
Y471339D02*
D03*
Y481339D02*
D03*
Y491339D02*
D03*
Y501339D02*
D03*
Y511339D02*
D03*
Y531339D02*
D03*
D74*
X492913Y327559D02*
D03*
X313779D02*
D03*
D75*
X465354Y317874D02*
D03*
X451575D02*
D03*
X437795D02*
D03*
X424016D02*
D03*
X410236D02*
D03*
X396457D02*
D03*
X382677D02*
D03*
X368898D02*
D03*
X355118D02*
D03*
X341339D02*
D03*
Y331653D02*
D03*
X465354D02*
D03*
X451575D02*
D03*
X437795D02*
D03*
X424016D02*
D03*
X410236D02*
D03*
X396457D02*
D03*
X382677D02*
D03*
X368898D02*
D03*
X355118D02*
D03*
D76*
X481299Y448189D02*
D03*
Y437992D02*
D03*
X402559Y445866D02*
D03*
Y435669D02*
D03*
X568898Y434410D02*
D03*
Y424213D02*
D03*
D77*
X481299Y427795D02*
D03*
X402559Y425472D02*
D03*
X568898Y414016D02*
D03*
D78*
X474252Y669134D02*
D03*
D79*
X484252D02*
D03*
X494252D02*
D03*
Y679134D02*
D03*
X484252D02*
D03*
X474252D02*
D03*
D80*
X312992Y511319D02*
D03*
X560236Y636319D02*
D03*
X218012Y526083D02*
D03*
X358858Y431595D02*
D03*
X410039Y489272D02*
D03*
X430807Y440158D02*
D03*
X500394Y454823D02*
D03*
X404921Y505020D02*
D03*
X440158Y524902D02*
D03*
X428543Y531791D02*
D03*
X479429Y551279D02*
D03*
X504528Y534350D02*
D03*
X509744Y521654D02*
D03*
X495571Y566043D02*
D03*
X498622Y554528D02*
D03*
X293307Y376969D02*
D03*
X438976Y477362D02*
D03*
X514764Y390748D02*
D03*
X525591Y508858D02*
D03*
X366142Y507874D02*
D03*
X251969Y512795D02*
D03*
X443898Y501968D02*
D03*
X438976Y493110D02*
D03*
X500984Y514764D02*
D03*
X476377Y511810D02*
D03*
X467519Y518700D02*
D03*
X377953Y517717D02*
D03*
X445866Y537402D02*
D03*
X516732Y530512D02*
D03*
X477362Y521654D02*
D03*
X489173Y588583D02*
D03*
X470472Y631890D02*
D03*
X524606Y538386D02*
D03*
X362205Y366142D02*
D03*
X342520Y475394D02*
D03*
X309252Y412205D02*
D03*
X226378Y439961D02*
D03*
X417323Y584646D02*
D03*
X419291Y606299D02*
D03*
X468504Y582677D02*
D03*
X473425Y590551D02*
D03*
X453740Y570866D02*
D03*
X454724Y577756D02*
D03*
X453740Y586614D02*
D03*
X303543Y587205D02*
D03*
X332480Y587402D02*
D03*
X437992Y634842D02*
D03*
X417323Y646654D02*
D03*
X399606Y630905D02*
D03*
X462598Y624409D02*
D03*
X231299Y562008D02*
D03*
X265748Y532480D02*
D03*
X337598Y510827D02*
D03*
D81*
X215748Y677953D02*
D03*
X577953D02*
D03*
Y315748D02*
D03*
X215748D02*
D03*
M02*
