G04*
G04 #@! TF.GenerationSoftware,Altium Limited,Altium Designer,18.0.11 (651)*
G04*
G04 Layer_Color=255*
%FSLAX25Y25*%
%MOIN*%
G70*
G01*
G75*
%ADD16R,0.06693X0.04331*%
%ADD17R,0.01968X0.08858*%
%ADD18R,0.07874X0.09843*%
%ADD19R,0.07874X0.09843*%
%ADD20O,0.06693X0.02362*%
%ADD21R,0.03543X0.04724*%
%ADD22R,0.04331X0.06693*%
%ADD23R,0.03937X0.02756*%
%ADD24R,0.02756X0.03937*%
%ADD25O,0.05512X0.02165*%
%ADD26R,0.04724X0.03543*%
%ADD27R,0.07874X0.02362*%
G04:AMPARAMS|DCode=28|XSize=23.62mil|YSize=78.74mil|CornerRadius=5.91mil|HoleSize=0mil|Usage=FLASHONLY|Rotation=90.000|XOffset=0mil|YOffset=0mil|HoleType=Round|Shape=RoundedRectangle|*
%AMROUNDEDRECTD28*
21,1,0.02362,0.06693,0,0,90.0*
21,1,0.01181,0.07874,0,0,90.0*
1,1,0.01181,0.03347,0.00591*
1,1,0.01181,0.03347,-0.00591*
1,1,0.01181,-0.03347,-0.00591*
1,1,0.01181,-0.03347,0.00591*
%
%ADD28ROUNDEDRECTD28*%
%ADD29O,0.06693X0.02559*%
%ADD30R,0.06693X0.02559*%
%ADD31R,0.02559X0.05315*%
%ADD32O,0.02362X0.06693*%
%ADD33R,0.02362X0.06890*%
%ADD34R,0.20000X0.09843*%
%ADD35R,0.16929X0.03937*%
%ADD36R,0.12795X0.08071*%
%ADD37R,0.03937X0.08071*%
%ADD38R,0.05906X0.05906*%
%ADD39O,0.07874X0.02756*%
%ADD40R,0.06299X0.03937*%
G04:AMPARAMS|DCode=41|XSize=39.37mil|YSize=62.99mil|CornerRadius=9.84mil|HoleSize=0mil|Usage=FLASHONLY|Rotation=90.000|XOffset=0mil|YOffset=0mil|HoleType=Round|Shape=RoundedRectangle|*
%AMROUNDEDRECTD41*
21,1,0.03937,0.04331,0,0,90.0*
21,1,0.01968,0.06299,0,0,90.0*
1,1,0.01968,0.02165,0.00984*
1,1,0.01968,0.02165,-0.00984*
1,1,0.01968,-0.02165,-0.00984*
1,1,0.01968,-0.02165,0.00984*
%
%ADD41ROUNDEDRECTD41*%
G04:AMPARAMS|DCode=42|XSize=23.62mil|YSize=78.74mil|CornerRadius=5.91mil|HoleSize=0mil|Usage=FLASHONLY|Rotation=0.000|XOffset=0mil|YOffset=0mil|HoleType=Round|Shape=RoundedRectangle|*
%AMROUNDEDRECTD42*
21,1,0.02362,0.06693,0,0,0.0*
21,1,0.01181,0.07874,0,0,0.0*
1,1,0.01181,0.00591,-0.03347*
1,1,0.01181,-0.00591,-0.03347*
1,1,0.01181,-0.00591,0.03347*
1,1,0.01181,0.00591,0.03347*
%
%ADD42ROUNDEDRECTD42*%
%ADD43R,0.02362X0.07874*%
%ADD91C,0.05906*%
%ADD92R,0.05906X0.05906*%
%ADD93C,0.08268*%
%ADD94O,0.11811X0.08858*%
%ADD95R,0.11811X0.08858*%
%ADD96R,0.06299X0.06299*%
%ADD97C,0.06299*%
D16*
X560039Y626378D02*
D03*
Y615748D02*
D03*
X334252Y404823D02*
D03*
Y394193D02*
D03*
X319685Y404823D02*
D03*
Y394193D02*
D03*
X284449Y404921D02*
D03*
Y394291D02*
D03*
X382874Y574213D02*
D03*
Y563583D02*
D03*
X412402Y613779D02*
D03*
Y624409D02*
D03*
X295276Y646063D02*
D03*
Y635433D02*
D03*
X280512D02*
D03*
Y646063D02*
D03*
X265748Y561614D02*
D03*
Y572244D02*
D03*
X279528Y561614D02*
D03*
Y572244D02*
D03*
X292323D02*
D03*
Y561614D02*
D03*
X291339Y597835D02*
D03*
Y587205D02*
D03*
X456693Y442323D02*
D03*
Y431693D02*
D03*
X441929D02*
D03*
Y442323D02*
D03*
X370079Y432283D02*
D03*
Y442913D02*
D03*
X384842Y443307D02*
D03*
Y432677D02*
D03*
X530512Y419882D02*
D03*
Y430512D02*
D03*
X548228D02*
D03*
Y419882D02*
D03*
X542323Y626378D02*
D03*
Y615748D02*
D03*
X437992Y613779D02*
D03*
Y624409D02*
D03*
X426181Y614370D02*
D03*
Y625000D02*
D03*
X478346Y624016D02*
D03*
Y613386D02*
D03*
X462598Y601968D02*
D03*
Y612598D02*
D03*
X510827Y623425D02*
D03*
Y612795D02*
D03*
X249016Y490551D02*
D03*
Y479921D02*
D03*
X290354Y498622D02*
D03*
Y509252D02*
D03*
X246063Y626378D02*
D03*
Y615748D02*
D03*
X496063Y612795D02*
D03*
Y623425D02*
D03*
X430020Y491634D02*
D03*
Y502264D02*
D03*
D17*
X399213Y662598D02*
D03*
X402362D02*
D03*
X405512D02*
D03*
X408661D02*
D03*
X411811D02*
D03*
D18*
X387992Y684252D02*
D03*
X423032D02*
D03*
D19*
X387992Y662992D02*
D03*
X423032D02*
D03*
D20*
X405807Y553543D02*
D03*
Y558563D02*
D03*
Y563484D02*
D03*
Y568602D02*
D03*
Y573622D02*
D03*
Y578642D02*
D03*
Y583760D02*
D03*
X405787Y588701D02*
D03*
Y593661D02*
D03*
X405807Y598622D02*
D03*
X441929Y598721D02*
D03*
X441949Y593760D02*
D03*
Y588799D02*
D03*
X441929Y583858D02*
D03*
Y578740D02*
D03*
Y573721D02*
D03*
Y568701D02*
D03*
Y563583D02*
D03*
Y558661D02*
D03*
Y553642D02*
D03*
X488583Y502756D02*
D03*
Y505905D02*
D03*
Y509055D02*
D03*
Y512205D02*
D03*
Y515354D02*
D03*
Y518504D02*
D03*
Y521654D02*
D03*
Y524803D02*
D03*
X454331D02*
D03*
Y521654D02*
D03*
Y518504D02*
D03*
Y515354D02*
D03*
Y512205D02*
D03*
Y509055D02*
D03*
Y505905D02*
D03*
Y502756D02*
D03*
D21*
X301181Y422244D02*
D03*
X314567D02*
D03*
X268307Y521654D02*
D03*
X254921D02*
D03*
D22*
X334055Y422146D02*
D03*
X323425D02*
D03*
X493504Y543307D02*
D03*
X482874D02*
D03*
X473819D02*
D03*
X463189D02*
D03*
X460236Y558071D02*
D03*
X470866D02*
D03*
X294685Y622047D02*
D03*
X284055D02*
D03*
X290748Y483268D02*
D03*
X280118D02*
D03*
X559449Y596457D02*
D03*
X548819D02*
D03*
X332087Y662402D02*
D03*
X321457D02*
D03*
X263386Y366142D02*
D03*
X274016D02*
D03*
X272047Y503937D02*
D03*
X261417D02*
D03*
X340158Y594488D02*
D03*
X350787D02*
D03*
X412008Y523622D02*
D03*
X422638D02*
D03*
D23*
X300984Y400591D02*
D03*
X309252Y404331D02*
D03*
Y396850D02*
D03*
X269488Y594488D02*
D03*
X277756Y598228D02*
D03*
Y590748D02*
D03*
X266929Y637992D02*
D03*
Y645472D02*
D03*
X258661Y641732D02*
D03*
X262598Y623819D02*
D03*
Y616339D02*
D03*
X270866Y620079D02*
D03*
D24*
X287205Y429921D02*
D03*
X290945Y421654D02*
D03*
X283465D02*
D03*
X285630Y525394D02*
D03*
X293110D02*
D03*
X289370Y533661D02*
D03*
X525591Y386024D02*
D03*
X529331Y377756D02*
D03*
X521850D02*
D03*
X361221Y401772D02*
D03*
X364961Y393504D02*
D03*
X357480D02*
D03*
X547441Y642520D02*
D03*
X554921D02*
D03*
X551181Y650787D02*
D03*
X329528Y645866D02*
D03*
X322047D02*
D03*
X325787Y637598D02*
D03*
X434252Y392520D02*
D03*
X441732D02*
D03*
X437992Y400787D02*
D03*
X269488Y488386D02*
D03*
X262008D02*
D03*
X265748Y480118D02*
D03*
X256201Y594685D02*
D03*
X248721D02*
D03*
X252461Y586417D02*
D03*
D25*
X501968Y561024D02*
D03*
Y566024D02*
D03*
Y571024D02*
D03*
Y576024D02*
D03*
Y581024D02*
D03*
Y586024D02*
D03*
Y591024D02*
D03*
X480315Y561024D02*
D03*
Y566024D02*
D03*
Y571024D02*
D03*
Y576024D02*
D03*
Y581024D02*
D03*
Y586024D02*
D03*
Y591024D02*
D03*
D26*
X311024Y658071D02*
D03*
Y644685D02*
D03*
X247047Y655512D02*
D03*
Y642126D02*
D03*
D27*
X336614Y491929D02*
D03*
Y487205D02*
D03*
D28*
Y482480D02*
D03*
D29*
X279724Y335020D02*
D03*
Y340020D02*
D03*
Y345020D02*
D03*
Y350020D02*
D03*
X257677Y335020D02*
D03*
Y340020D02*
D03*
Y345020D02*
D03*
D30*
Y350020D02*
D03*
D31*
X251673Y568898D02*
D03*
Y559449D02*
D03*
D32*
X460433Y496654D02*
D03*
X463583D02*
D03*
X466732D02*
D03*
X469882D02*
D03*
X473032D02*
D03*
X476181D02*
D03*
X479331D02*
D03*
X482480D02*
D03*
Y530905D02*
D03*
X479331D02*
D03*
X476181D02*
D03*
X473032D02*
D03*
X469882D02*
D03*
X466732D02*
D03*
X463583D02*
D03*
X460433D02*
D03*
D33*
X433563Y379921D02*
D03*
X446358D02*
D03*
X433563Y419291D02*
D03*
X446358D02*
D03*
X520177Y367126D02*
D03*
X532972D02*
D03*
X354823Y380906D02*
D03*
X367618D02*
D03*
X379429Y420276D02*
D03*
X366634D02*
D03*
X531988Y404528D02*
D03*
X519193D02*
D03*
D34*
X481299Y380118D02*
D03*
Y408465D02*
D03*
X567913Y367913D02*
D03*
Y396260D02*
D03*
X402559Y378740D02*
D03*
Y407087D02*
D03*
D35*
X377953Y609252D02*
D03*
Y615158D02*
D03*
Y621063D02*
D03*
D36*
X341535Y555709D02*
D03*
D37*
X332480Y578445D02*
D03*
X341535D02*
D03*
X350590D02*
D03*
D38*
X509842Y642717D02*
D03*
X496063D02*
D03*
D39*
X357087Y522953D02*
D03*
Y517953D02*
D03*
Y512953D02*
D03*
Y507953D02*
D03*
Y502953D02*
D03*
Y497953D02*
D03*
Y492953D02*
D03*
Y487953D02*
D03*
Y482953D02*
D03*
X394882Y522953D02*
D03*
Y517953D02*
D03*
Y512953D02*
D03*
Y507953D02*
D03*
Y502953D02*
D03*
Y497953D02*
D03*
Y492953D02*
D03*
Y487953D02*
D03*
Y482953D02*
D03*
D40*
X531890Y566929D02*
D03*
X553150D02*
D03*
Y581890D02*
D03*
D41*
X531890D02*
D03*
D42*
X474606Y476378D02*
D03*
D43*
X479331D02*
D03*
X484055D02*
D03*
D91*
X579232Y585098D02*
D03*
Y575098D02*
D03*
Y565098D02*
D03*
X586614Y472598D02*
D03*
Y482598D02*
D03*
Y492598D02*
D03*
Y502598D02*
D03*
Y512598D02*
D03*
Y522598D02*
D03*
Y532598D02*
D03*
X206693Y521339D02*
D03*
Y451339D02*
D03*
Y461339D02*
D03*
Y471339D02*
D03*
Y481339D02*
D03*
Y491339D02*
D03*
Y501339D02*
D03*
Y511339D02*
D03*
Y531339D02*
D03*
D92*
X579232Y555098D02*
D03*
X586614Y462598D02*
D03*
X206693Y541339D02*
D03*
D93*
X465354Y317874D02*
D03*
X451575D02*
D03*
X437795D02*
D03*
X424016D02*
D03*
X410236D02*
D03*
X396457D02*
D03*
X382677D02*
D03*
X368898D02*
D03*
X355118D02*
D03*
X341339D02*
D03*
Y331653D02*
D03*
X465354D02*
D03*
X451575D02*
D03*
X437795D02*
D03*
X424016D02*
D03*
X410236D02*
D03*
X396457D02*
D03*
X382677D02*
D03*
X368898D02*
D03*
X355118D02*
D03*
D94*
X481299Y448189D02*
D03*
Y437992D02*
D03*
X402559Y445866D02*
D03*
Y435669D02*
D03*
X568898Y434410D02*
D03*
Y424213D02*
D03*
D95*
X481299Y427795D02*
D03*
X402559Y425472D02*
D03*
X568898Y414016D02*
D03*
D96*
X474252Y669134D02*
D03*
D97*
X484252D02*
D03*
X494252D02*
D03*
Y679134D02*
D03*
X484252D02*
D03*
X474252D02*
D03*
M02*
