G04*
G04 #@! TF.GenerationSoftware,Altium Limited,Altium Designer,18.0.11 (651)*
G04*
G04 Layer_Color=8421504*
%FSLAX25Y25*%
%MOIN*%
G70*
G01*
G75*
%ADD16R,0.02362X0.07874*%
G04:AMPARAMS|DCode=17|XSize=23.62mil|YSize=78.74mil|CornerRadius=5.91mil|HoleSize=0mil|Usage=FLASHONLY|Rotation=0.000|XOffset=0mil|YOffset=0mil|HoleType=Round|Shape=RoundedRectangle|*
%AMROUNDEDRECTD17*
21,1,0.02362,0.06693,0,0,0.0*
21,1,0.01181,0.07874,0,0,0.0*
1,1,0.01181,0.00591,-0.03347*
1,1,0.01181,-0.00591,-0.03347*
1,1,0.01181,-0.00591,0.03347*
1,1,0.01181,0.00591,0.03347*
%
%ADD17ROUNDEDRECTD17*%
G04:AMPARAMS|DCode=18|XSize=39.37mil|YSize=62.99mil|CornerRadius=9.84mil|HoleSize=0mil|Usage=FLASHONLY|Rotation=90.000|XOffset=0mil|YOffset=0mil|HoleType=Round|Shape=RoundedRectangle|*
%AMROUNDEDRECTD18*
21,1,0.03937,0.04331,0,0,90.0*
21,1,0.01968,0.06299,0,0,90.0*
1,1,0.01968,0.02165,0.00984*
1,1,0.01968,0.02165,-0.00984*
1,1,0.01968,-0.02165,-0.00984*
1,1,0.01968,-0.02165,0.00984*
%
%ADD18ROUNDEDRECTD18*%
%ADD19R,0.06299X0.03937*%
%ADD20R,0.04331X0.06693*%
%ADD21R,0.06693X0.04331*%
%ADD22O,0.07874X0.02756*%
%ADD23R,0.05906X0.05906*%
%ADD24R,0.02756X0.03937*%
%ADD25R,0.03937X0.02756*%
%ADD26R,0.04724X0.03543*%
%ADD27R,0.03937X0.08071*%
%ADD28R,0.12795X0.08071*%
%ADD29R,0.16929X0.03937*%
%ADD30R,0.02362X0.06890*%
%ADD31R,0.20000X0.09843*%
%ADD32O,0.06693X0.02362*%
%ADD33O,0.02362X0.06693*%
%ADD34R,0.02559X0.05315*%
%ADD35R,0.06693X0.02559*%
%ADD36O,0.06693X0.02559*%
G04:AMPARAMS|DCode=37|XSize=23.62mil|YSize=78.74mil|CornerRadius=5.91mil|HoleSize=0mil|Usage=FLASHONLY|Rotation=90.000|XOffset=0mil|YOffset=0mil|HoleType=Round|Shape=RoundedRectangle|*
%AMROUNDEDRECTD37*
21,1,0.02362,0.06693,0,0,90.0*
21,1,0.01181,0.07874,0,0,90.0*
1,1,0.01181,0.03347,0.00591*
1,1,0.01181,0.03347,-0.00591*
1,1,0.01181,-0.03347,-0.00591*
1,1,0.01181,-0.03347,0.00591*
%
%ADD37ROUNDEDRECTD37*%
%ADD38R,0.07874X0.02362*%
%ADD39R,0.03543X0.04724*%
%ADD40O,0.05512X0.02165*%
%ADD41R,0.07874X0.09843*%
%ADD42R,0.07874X0.09843*%
%ADD43R,0.01968X0.08858*%
D16*
X484055Y476378D02*
D03*
X479331D02*
D03*
D17*
X474606D02*
D03*
D18*
X531890Y581890D02*
D03*
D19*
X553150D02*
D03*
Y566929D02*
D03*
X531890D02*
D03*
D20*
X422638Y523622D02*
D03*
X412008D02*
D03*
X350787Y594488D02*
D03*
X340158D02*
D03*
X261417Y503937D02*
D03*
X272047D02*
D03*
X274016Y366142D02*
D03*
X263386D02*
D03*
X321457Y662402D02*
D03*
X332087D02*
D03*
X548819Y596457D02*
D03*
X559449D02*
D03*
X280118Y483268D02*
D03*
X290748D02*
D03*
X284055Y622047D02*
D03*
X294685D02*
D03*
X470866Y558071D02*
D03*
X460236D02*
D03*
X463189Y543307D02*
D03*
X473819D02*
D03*
X482874D02*
D03*
X493504D02*
D03*
X323425Y422146D02*
D03*
X334055D02*
D03*
D21*
X430020Y502264D02*
D03*
Y491634D02*
D03*
X496063Y623425D02*
D03*
Y612795D02*
D03*
X246063Y615748D02*
D03*
Y626378D02*
D03*
X290354Y509252D02*
D03*
Y498622D02*
D03*
X249016Y479921D02*
D03*
Y490551D02*
D03*
X510827Y612795D02*
D03*
Y623425D02*
D03*
X462598Y612598D02*
D03*
Y601968D02*
D03*
X478346Y613386D02*
D03*
Y624016D02*
D03*
X426181Y625000D02*
D03*
Y614370D02*
D03*
X437992Y624409D02*
D03*
Y613779D02*
D03*
X542323Y615748D02*
D03*
Y626378D02*
D03*
X548228Y419882D02*
D03*
Y430512D02*
D03*
X530512D02*
D03*
Y419882D02*
D03*
X384842Y432677D02*
D03*
Y443307D02*
D03*
X370079Y442913D02*
D03*
Y432283D02*
D03*
X441929Y442323D02*
D03*
Y431693D02*
D03*
X456693D02*
D03*
Y442323D02*
D03*
X291339Y587205D02*
D03*
Y597835D02*
D03*
X292323Y561614D02*
D03*
Y572244D02*
D03*
X279528D02*
D03*
Y561614D02*
D03*
X265748Y572244D02*
D03*
Y561614D02*
D03*
X280512Y646063D02*
D03*
Y635433D02*
D03*
X295276D02*
D03*
Y646063D02*
D03*
X412402Y624409D02*
D03*
Y613779D02*
D03*
X382874Y563583D02*
D03*
Y574213D02*
D03*
X284449Y394291D02*
D03*
Y404921D02*
D03*
X319685Y394193D02*
D03*
Y404823D02*
D03*
X334252Y394193D02*
D03*
Y404823D02*
D03*
X560039Y615748D02*
D03*
Y626378D02*
D03*
D22*
X394882Y482953D02*
D03*
Y487953D02*
D03*
Y492953D02*
D03*
Y497953D02*
D03*
Y502953D02*
D03*
Y507953D02*
D03*
Y512953D02*
D03*
Y517953D02*
D03*
Y522953D02*
D03*
X357087Y482953D02*
D03*
Y487953D02*
D03*
Y492953D02*
D03*
Y497953D02*
D03*
Y502953D02*
D03*
Y507953D02*
D03*
Y512953D02*
D03*
Y517953D02*
D03*
Y522953D02*
D03*
D23*
X496063Y642717D02*
D03*
X509842D02*
D03*
D24*
X252461Y586417D02*
D03*
X248721Y594685D02*
D03*
X256201D02*
D03*
X265748Y480118D02*
D03*
X262008Y488386D02*
D03*
X269488D02*
D03*
X437992Y400787D02*
D03*
X441732Y392520D02*
D03*
X434252D02*
D03*
X325787Y637598D02*
D03*
X322047Y645866D02*
D03*
X329528D02*
D03*
X551181Y650787D02*
D03*
X554921Y642520D02*
D03*
X547441D02*
D03*
X357480Y393504D02*
D03*
X364961D02*
D03*
X361221Y401772D02*
D03*
X521850Y377756D02*
D03*
X529331D02*
D03*
X525591Y386024D02*
D03*
X289370Y533661D02*
D03*
X293110Y525394D02*
D03*
X285630D02*
D03*
X283465Y421654D02*
D03*
X290945D02*
D03*
X287205Y429921D02*
D03*
D25*
X270866Y620079D02*
D03*
X262598Y616339D02*
D03*
Y623819D02*
D03*
X258661Y641732D02*
D03*
X266929Y645472D02*
D03*
Y637992D02*
D03*
X277756Y590748D02*
D03*
Y598228D02*
D03*
X269488Y594488D02*
D03*
X309252Y396850D02*
D03*
Y404331D02*
D03*
X300984Y400591D02*
D03*
D26*
X247047Y642126D02*
D03*
Y655512D02*
D03*
X311024Y644685D02*
D03*
Y658071D02*
D03*
D27*
X350590Y578445D02*
D03*
X341535D02*
D03*
X332480D02*
D03*
D28*
X341535Y555709D02*
D03*
D29*
X377953Y621063D02*
D03*
Y615158D02*
D03*
Y609252D02*
D03*
D30*
X519193Y404528D02*
D03*
X531988D02*
D03*
X366634Y420276D02*
D03*
X379429D02*
D03*
X367618Y380906D02*
D03*
X354823D02*
D03*
X532972Y367126D02*
D03*
X520177D02*
D03*
X446358Y419291D02*
D03*
X433563D02*
D03*
X446358Y379921D02*
D03*
X433563D02*
D03*
D31*
X402559Y407087D02*
D03*
Y378740D02*
D03*
X567913Y396260D02*
D03*
Y367913D02*
D03*
X481299Y408465D02*
D03*
Y380118D02*
D03*
D32*
X454331Y502756D02*
D03*
Y505905D02*
D03*
Y509055D02*
D03*
Y512205D02*
D03*
Y515354D02*
D03*
Y518504D02*
D03*
Y521654D02*
D03*
Y524803D02*
D03*
X488583D02*
D03*
Y521654D02*
D03*
Y518504D02*
D03*
Y515354D02*
D03*
Y512205D02*
D03*
Y509055D02*
D03*
Y505905D02*
D03*
Y502756D02*
D03*
X441929Y553642D02*
D03*
Y558661D02*
D03*
Y563583D02*
D03*
Y568701D02*
D03*
Y573721D02*
D03*
Y578740D02*
D03*
Y583858D02*
D03*
X441949Y588799D02*
D03*
Y593760D02*
D03*
X441929Y598721D02*
D03*
X405807Y598622D02*
D03*
X405787Y593661D02*
D03*
Y588701D02*
D03*
X405807Y583760D02*
D03*
Y578642D02*
D03*
Y573622D02*
D03*
Y568602D02*
D03*
Y563484D02*
D03*
Y558563D02*
D03*
Y553543D02*
D03*
D33*
X460433Y530905D02*
D03*
X463583D02*
D03*
X466732D02*
D03*
X469882D02*
D03*
X473032D02*
D03*
X476181D02*
D03*
X479331D02*
D03*
X482480D02*
D03*
Y496654D02*
D03*
X479331D02*
D03*
X476181D02*
D03*
X473032D02*
D03*
X469882D02*
D03*
X466732D02*
D03*
X463583D02*
D03*
X460433D02*
D03*
D34*
X251673Y559449D02*
D03*
Y568898D02*
D03*
D35*
X257677Y350020D02*
D03*
D36*
Y345020D02*
D03*
Y340020D02*
D03*
Y335020D02*
D03*
X279724Y350020D02*
D03*
Y345020D02*
D03*
Y340020D02*
D03*
Y335020D02*
D03*
D37*
X336614Y482480D02*
D03*
D38*
Y487205D02*
D03*
Y491929D02*
D03*
D39*
X254921Y521654D02*
D03*
X268307D02*
D03*
X314567Y422244D02*
D03*
X301181D02*
D03*
D40*
X480315Y591024D02*
D03*
Y586024D02*
D03*
Y581024D02*
D03*
Y576024D02*
D03*
Y571024D02*
D03*
Y566024D02*
D03*
Y561024D02*
D03*
X501968Y591024D02*
D03*
Y586024D02*
D03*
Y581024D02*
D03*
Y576024D02*
D03*
Y571024D02*
D03*
Y566024D02*
D03*
Y561024D02*
D03*
D41*
X423032Y662992D02*
D03*
X387992D02*
D03*
D42*
X423032Y684252D02*
D03*
X387992D02*
D03*
D43*
X411811Y662598D02*
D03*
X408661D02*
D03*
X405512D02*
D03*
X402362D02*
D03*
X399213D02*
D03*
M02*
