G04*
G04 #@! TF.GenerationSoftware,Altium Limited,Altium Designer,18.0.11 (651)*
G04*
G04 Layer_Color=8388736*
%FSLAX25Y25*%
%MOIN*%
G70*
G01*
G75*
%ADD44R,0.03162X0.08674*%
G04:AMPARAMS|DCode=45|XSize=31.62mil|YSize=86.74mil|CornerRadius=9.91mil|HoleSize=0mil|Usage=FLASHONLY|Rotation=0.000|XOffset=0mil|YOffset=0mil|HoleType=Round|Shape=RoundedRectangle|*
%AMROUNDEDRECTD45*
21,1,0.03162,0.06693,0,0,0.0*
21,1,0.01181,0.08674,0,0,0.0*
1,1,0.01981,0.00591,-0.03347*
1,1,0.01981,-0.00591,-0.03347*
1,1,0.01981,-0.00591,0.03347*
1,1,0.01981,0.00591,0.03347*
%
%ADD45ROUNDEDRECTD45*%
G04:AMPARAMS|DCode=46|XSize=47.37mil|YSize=70.99mil|CornerRadius=13.84mil|HoleSize=0mil|Usage=FLASHONLY|Rotation=90.000|XOffset=0mil|YOffset=0mil|HoleType=Round|Shape=RoundedRectangle|*
%AMROUNDEDRECTD46*
21,1,0.04737,0.04331,0,0,90.0*
21,1,0.01968,0.07099,0,0,90.0*
1,1,0.02769,0.02165,0.00984*
1,1,0.02769,0.02165,-0.00984*
1,1,0.02769,-0.02165,-0.00984*
1,1,0.02769,-0.02165,0.00984*
%
%ADD46ROUNDEDRECTD46*%
%ADD47R,0.07099X0.04737*%
%ADD48R,0.05131X0.07493*%
%ADD49R,0.07493X0.05131*%
%ADD50O,0.08674X0.03556*%
%ADD51R,0.06706X0.06706*%
%ADD52R,0.03556X0.04737*%
%ADD53R,0.04737X0.03556*%
%ADD54R,0.05524X0.04343*%
%ADD55R,0.04737X0.08871*%
%ADD56R,0.13595X0.08871*%
%ADD57R,0.17729X0.04737*%
%ADD58R,0.03162X0.07690*%
%ADD59R,0.20800X0.10642*%
%ADD60O,0.07493X0.03162*%
%ADD61O,0.03162X0.07493*%
%ADD62R,0.03359X0.06115*%
%ADD63R,0.07493X0.03359*%
%ADD64O,0.07493X0.03359*%
G04:AMPARAMS|DCode=65|XSize=31.62mil|YSize=86.74mil|CornerRadius=9.91mil|HoleSize=0mil|Usage=FLASHONLY|Rotation=90.000|XOffset=0mil|YOffset=0mil|HoleType=Round|Shape=RoundedRectangle|*
%AMROUNDEDRECTD65*
21,1,0.03162,0.06693,0,0,90.0*
21,1,0.01181,0.08674,0,0,90.0*
1,1,0.01981,0.03347,0.00591*
1,1,0.01981,0.03347,-0.00591*
1,1,0.01981,-0.03347,-0.00591*
1,1,0.01981,-0.03347,0.00591*
%
%ADD65ROUNDEDRECTD65*%
%ADD66R,0.08674X0.03162*%
%ADD67R,0.04343X0.05524*%
%ADD68O,0.06312X0.02965*%
%ADD69R,0.08674X0.10642*%
%ADD70R,0.08674X0.10642*%
%ADD71R,0.02769X0.09658*%
%ADD72C,0.07099*%
%ADD73R,0.07099X0.07099*%
%ADD74R,0.06706X0.06706*%
%ADD75C,0.06706*%
%ADD76O,0.12611X0.09658*%
%ADD77R,0.12611X0.09658*%
%ADD78C,0.09068*%
%ADD79C,0.00800*%
%ADD80C,0.05800*%
%ADD81C,0.16548*%
D44*
X484055Y476378D02*
D03*
X479331D02*
D03*
D45*
X474606D02*
D03*
D46*
X531890Y581890D02*
D03*
D47*
X553150D02*
D03*
Y566929D02*
D03*
X531890D02*
D03*
D48*
X422638Y523622D02*
D03*
X412008D02*
D03*
X350787Y594488D02*
D03*
X340158D02*
D03*
X261417Y503937D02*
D03*
X272047D02*
D03*
X274016Y366142D02*
D03*
X263386D02*
D03*
X321457Y662402D02*
D03*
X332087D02*
D03*
X548819Y596457D02*
D03*
X559449D02*
D03*
X280118Y483268D02*
D03*
X290748D02*
D03*
X284055Y622047D02*
D03*
X294685D02*
D03*
X470866Y558071D02*
D03*
X460236D02*
D03*
X463189Y543307D02*
D03*
X473819D02*
D03*
X482874D02*
D03*
X493504D02*
D03*
X323425Y422146D02*
D03*
X334055D02*
D03*
D49*
X430020Y502264D02*
D03*
Y491634D02*
D03*
X496063Y623425D02*
D03*
Y612795D02*
D03*
X246063Y615748D02*
D03*
Y626378D02*
D03*
X290354Y509252D02*
D03*
Y498622D02*
D03*
X249016Y479921D02*
D03*
Y490551D02*
D03*
X510827Y612795D02*
D03*
Y623425D02*
D03*
X462598Y612598D02*
D03*
Y601968D02*
D03*
X478346Y613386D02*
D03*
Y624016D02*
D03*
X426181Y625000D02*
D03*
Y614370D02*
D03*
X437992Y624409D02*
D03*
Y613779D02*
D03*
X542323Y615748D02*
D03*
Y626378D02*
D03*
X548228Y419882D02*
D03*
Y430512D02*
D03*
X530512D02*
D03*
Y419882D02*
D03*
X384842Y432677D02*
D03*
Y443307D02*
D03*
X370079Y442913D02*
D03*
Y432283D02*
D03*
X441929Y442323D02*
D03*
Y431693D02*
D03*
X456693D02*
D03*
Y442323D02*
D03*
X291339Y587205D02*
D03*
Y597835D02*
D03*
X292323Y561614D02*
D03*
Y572244D02*
D03*
X279528D02*
D03*
Y561614D02*
D03*
X265748Y572244D02*
D03*
Y561614D02*
D03*
X280512Y646063D02*
D03*
Y635433D02*
D03*
X295276D02*
D03*
Y646063D02*
D03*
X412402Y624409D02*
D03*
Y613779D02*
D03*
X382874Y563583D02*
D03*
Y574213D02*
D03*
X284449Y394291D02*
D03*
Y404921D02*
D03*
X319685Y394193D02*
D03*
Y404823D02*
D03*
X334252Y394193D02*
D03*
Y404823D02*
D03*
X560039Y615748D02*
D03*
Y626378D02*
D03*
D50*
X394882Y482953D02*
D03*
Y487953D02*
D03*
Y492953D02*
D03*
Y497953D02*
D03*
Y502953D02*
D03*
Y507953D02*
D03*
Y512953D02*
D03*
Y517953D02*
D03*
Y522953D02*
D03*
X357087Y482953D02*
D03*
Y487953D02*
D03*
Y492953D02*
D03*
Y497953D02*
D03*
Y502953D02*
D03*
Y507953D02*
D03*
Y512953D02*
D03*
Y517953D02*
D03*
Y522953D02*
D03*
D51*
X496063Y642717D02*
D03*
X509842D02*
D03*
D52*
X252461Y586417D02*
D03*
X248721Y594685D02*
D03*
X256201D02*
D03*
X265748Y480118D02*
D03*
X262008Y488386D02*
D03*
X269488D02*
D03*
X437992Y400787D02*
D03*
X441732Y392520D02*
D03*
X434252D02*
D03*
X325787Y637598D02*
D03*
X322047Y645866D02*
D03*
X329528D02*
D03*
X551181Y650787D02*
D03*
X554921Y642520D02*
D03*
X547441D02*
D03*
X357480Y393504D02*
D03*
X364961D02*
D03*
X361221Y401772D02*
D03*
X521850Y377756D02*
D03*
X529331D02*
D03*
X525591Y386024D02*
D03*
X289370Y533661D02*
D03*
X293110Y525394D02*
D03*
X285630D02*
D03*
X283465Y421654D02*
D03*
X290945D02*
D03*
X287205Y429921D02*
D03*
D53*
X270866Y620079D02*
D03*
X262598Y616339D02*
D03*
Y623819D02*
D03*
X258661Y641732D02*
D03*
X266929Y645472D02*
D03*
Y637992D02*
D03*
X277756Y590748D02*
D03*
Y598228D02*
D03*
X269488Y594488D02*
D03*
X309252Y396850D02*
D03*
Y404331D02*
D03*
X300984Y400591D02*
D03*
D54*
X247047Y642126D02*
D03*
Y655512D02*
D03*
X311024Y644685D02*
D03*
Y658071D02*
D03*
D55*
X350590Y578445D02*
D03*
X341535D02*
D03*
X332480D02*
D03*
D56*
X341535Y555709D02*
D03*
D57*
X377953Y621063D02*
D03*
Y615158D02*
D03*
Y609252D02*
D03*
D58*
X519193Y404528D02*
D03*
X531988D02*
D03*
X366634Y420276D02*
D03*
X379429D02*
D03*
X367618Y380906D02*
D03*
X354823D02*
D03*
X532972Y367126D02*
D03*
X520177D02*
D03*
X446358Y419291D02*
D03*
X433563D02*
D03*
X446358Y379921D02*
D03*
X433563D02*
D03*
D59*
X402559Y407087D02*
D03*
Y378740D02*
D03*
X567913Y396260D02*
D03*
Y367913D02*
D03*
X481299Y408465D02*
D03*
Y380118D02*
D03*
D60*
X454331Y502756D02*
D03*
Y505905D02*
D03*
Y509055D02*
D03*
Y512205D02*
D03*
Y515354D02*
D03*
Y518504D02*
D03*
Y521654D02*
D03*
Y524803D02*
D03*
X488583D02*
D03*
Y521654D02*
D03*
Y518504D02*
D03*
Y515354D02*
D03*
Y512205D02*
D03*
Y509055D02*
D03*
Y505905D02*
D03*
Y502756D02*
D03*
X441929Y553642D02*
D03*
Y558661D02*
D03*
Y563583D02*
D03*
Y568701D02*
D03*
Y573721D02*
D03*
Y578740D02*
D03*
Y583858D02*
D03*
X441949Y588799D02*
D03*
Y593760D02*
D03*
X441929Y598721D02*
D03*
X405807Y598622D02*
D03*
X405787Y593661D02*
D03*
Y588701D02*
D03*
X405807Y583760D02*
D03*
Y578642D02*
D03*
Y573622D02*
D03*
Y568602D02*
D03*
Y563484D02*
D03*
Y558563D02*
D03*
Y553543D02*
D03*
D61*
X460433Y530905D02*
D03*
X463583D02*
D03*
X466732D02*
D03*
X469882D02*
D03*
X473032D02*
D03*
X476181D02*
D03*
X479331D02*
D03*
X482480D02*
D03*
Y496654D02*
D03*
X479331D02*
D03*
X476181D02*
D03*
X473032D02*
D03*
X469882D02*
D03*
X466732D02*
D03*
X463583D02*
D03*
X460433D02*
D03*
D62*
X251673Y559449D02*
D03*
Y568898D02*
D03*
D63*
X257677Y350020D02*
D03*
D64*
Y345020D02*
D03*
Y340020D02*
D03*
Y335020D02*
D03*
X279724Y350020D02*
D03*
Y345020D02*
D03*
Y340020D02*
D03*
Y335020D02*
D03*
D65*
X336614Y482480D02*
D03*
D66*
Y487205D02*
D03*
Y491929D02*
D03*
D67*
X254921Y521654D02*
D03*
X268307D02*
D03*
X314567Y422244D02*
D03*
X301181D02*
D03*
D68*
X480315Y591024D02*
D03*
Y586024D02*
D03*
Y581024D02*
D03*
Y576024D02*
D03*
Y571024D02*
D03*
Y566024D02*
D03*
Y561024D02*
D03*
X501968Y591024D02*
D03*
Y586024D02*
D03*
Y581024D02*
D03*
Y576024D02*
D03*
Y571024D02*
D03*
Y566024D02*
D03*
Y561024D02*
D03*
D69*
X423032Y662992D02*
D03*
X387992D02*
D03*
D70*
X423032Y684252D02*
D03*
X387992D02*
D03*
D71*
X411811Y662598D02*
D03*
X408661D02*
D03*
X405512D02*
D03*
X402362D02*
D03*
X399213D02*
D03*
D72*
X474252Y679134D02*
D03*
X484252D02*
D03*
X494252D02*
D03*
Y669134D02*
D03*
X484252D02*
D03*
D73*
X474252D02*
D03*
D74*
X206693Y541339D02*
D03*
X586614Y462598D02*
D03*
D75*
X206693Y531339D02*
D03*
Y511339D02*
D03*
Y501339D02*
D03*
Y491339D02*
D03*
Y481339D02*
D03*
Y471339D02*
D03*
Y461339D02*
D03*
Y451339D02*
D03*
Y521339D02*
D03*
X586614Y532598D02*
D03*
Y522598D02*
D03*
Y512598D02*
D03*
Y502598D02*
D03*
Y492598D02*
D03*
Y482598D02*
D03*
Y472598D02*
D03*
D76*
X568898Y424213D02*
D03*
Y434410D02*
D03*
X402559Y435669D02*
D03*
Y445866D02*
D03*
X481299Y437992D02*
D03*
Y448189D02*
D03*
D77*
X568898Y414016D02*
D03*
X402559Y425472D02*
D03*
X481299Y427795D02*
D03*
D78*
X355118Y331653D02*
D03*
X368898D02*
D03*
X382677D02*
D03*
X396457D02*
D03*
X410236D02*
D03*
X424016D02*
D03*
X437795D02*
D03*
X451575D02*
D03*
X465354D02*
D03*
X341339D02*
D03*
Y317874D02*
D03*
X355118D02*
D03*
X368898D02*
D03*
X382677D02*
D03*
X396457D02*
D03*
X410236D02*
D03*
X424016D02*
D03*
X437795D02*
D03*
X451575D02*
D03*
X465354D02*
D03*
D79*
X313779Y327559D02*
D03*
X492913D02*
D03*
D80*
X418981Y649525D02*
D03*
X337598Y510827D02*
D03*
X265748Y532480D02*
D03*
X231299Y562008D02*
D03*
X462598Y624409D02*
D03*
X399606Y630905D02*
D03*
X437992Y634842D02*
D03*
X332480Y587402D02*
D03*
X303543Y587205D02*
D03*
X453740Y586614D02*
D03*
X454724Y577756D02*
D03*
X453740Y570866D02*
D03*
X473425Y590551D02*
D03*
X468504Y582677D02*
D03*
X419291Y606299D02*
D03*
X417323Y584646D02*
D03*
X226378Y439961D02*
D03*
X309252Y412205D02*
D03*
X342520Y475394D02*
D03*
X362205Y366142D02*
D03*
X524606Y538386D02*
D03*
X470472Y631890D02*
D03*
X489173Y588583D02*
D03*
X477362Y521654D02*
D03*
X516732Y530512D02*
D03*
X445866Y537402D02*
D03*
X377953Y517717D02*
D03*
X467519Y518700D02*
D03*
X476377Y511810D02*
D03*
X500984Y514764D02*
D03*
X438976Y493110D02*
D03*
X443898Y501968D02*
D03*
X251969Y512795D02*
D03*
X366142Y507874D02*
D03*
X525591Y508858D02*
D03*
X514764Y390748D02*
D03*
X438976Y477362D02*
D03*
X293307Y376969D02*
D03*
X498622Y554528D02*
D03*
X495571Y566043D02*
D03*
X509744Y521654D02*
D03*
X504528Y534350D02*
D03*
X479429Y551279D02*
D03*
X428543Y531791D02*
D03*
X440158Y524902D02*
D03*
X404921Y505020D02*
D03*
X500394Y454823D02*
D03*
X430807Y440158D02*
D03*
X410039Y489272D02*
D03*
X358858Y431595D02*
D03*
X218012Y526083D02*
D03*
X560236Y636319D02*
D03*
X312992Y511319D02*
D03*
D81*
X215748Y315748D02*
D03*
X577953D02*
D03*
Y677953D02*
D03*
X215748D02*
D03*
M02*
