M48
;Layer_Color=9474304
;FILE_FORMAT=4:4
METRIC,LZ
;TYPE=PLATED
T1F00S00C0.7112
T3F00S00C0.9000
T4F00S00C1.0160
T5F00S00C1.2000
T6F00S00C1.4000
T7F00S00C1.5000
T8F00S00C1.5400
T9F00S00C1.7018
T10F00S00C4.0000
;TYPE=NON_PLATED
T11F00S00C4.1000
%
T01
X01272Y01512
X01398016Y01463294
X01256Y0163
T03
X00525Y011464
Y011718
X0149Y01175
Y012004
Y012258
Y012512
Y012766
Y01302
Y013274
Y013528
X00525Y013496
Y013242
Y012988
Y012734
Y01248
Y012226
Y011972
Y01375
X009268Y01741
X009522
X009776
X01003
X010284
X010538
X010792
X011046
X0115
X011754
X012008
X012262
X012516
X01277
X013024
X013278
T04
X009144Y0124206
X009398
X009652
T05
X01008126Y01034288
Y01059688
T06
X01008126Y01085088
X01218Y01387
X01293
T07
X012055Y013245
X013055
T08
X00867Y008074
X00902
X00937
X00972
X01007
X01042
X01077
X01112
X01147
X01182
Y008424
X01147
X01112
X01077
X01042
X01007
X00972
X00937
X00902
X00867
T09
X00617474Y00936752
X0065151
X00695706
X00729742
X0077216Y0093726
Y0103632
X00729742Y01035812
X00695706
X0065151
X00617474
X00746964Y01123
X00781
X00826
X00860036
X00849376Y01037082
X00883412
X00926084Y0103632
X0096012
Y0093726
X00926084
X00883412Y00938022
X00849376
X00806196Y0093726
Y0103632
X0112649Y01037336
X01160526
Y00938276
X0112649
X01203706Y00939292
X01237742
X01283208Y00938276
X01317244
X01363218
X01397254
Y01037336
X01363218
X01317244
X01283208
X01237742Y01038352
X01203706
X01201468Y01118
X01235504
X01280468
X01314504
X01361468
X01395504
Y0121706
X01361468
X01314504
X01280468
X01235504
X01201468
X01356Y0131
X01390036
Y0140906
X01356
X010541Y01449578
X01020064
X0097536Y014732
X00941324
X00898398Y01473454
X00864362
X0081915Y01472692
Y01373632
X00864362Y01374394
X00898398
X00941324Y0137414
X0097536
X01020064Y01350518
X010541
X00996Y01547
X00961964
X00860036Y0122206
X00826
X00781
X00746964
X00741426Y01375156
X0070739
X0066167
X00627634
Y01474216
X0066167
X0070739
X00741426
X00785114Y01472692
Y01373632
X00766064Y01609598
X00720598Y0160909
X00686562
X00642Y0160894
X00607964
Y01708
X00642
X00686562Y0170815
X00720598
X00766064Y01708658
X008001
X00845Y01708
X00879036
Y0160894
X00845
X008001Y01609598
X00961964Y0164606
X00996
T10
X00548Y00802
X01468
X00548Y01722
X01468
T11
X00797Y00832
X01252
M30
