M48
;Layer_Color=9474304
;FILE_FORMAT=4:4
METRIC,LZ
;TYPE=PLATED
T1F00S00C0.7112
T2F00S00C0.9000
T3F00S00C1.0000
T4F00S00C1.5000
T5F00S00C1.5400
T6F00S00C4.0000
;TYPE=NON_PLATED
T7F00S00C4.1000
%
T01
X00575Y011175
X007855Y01047
X00745Y009575
X0092Y0093
X009115Y0109625
X0109425Y01118
X01271Y0115525
X013075Y009925
X01335Y012925
X0129475Y01325
X012725Y013075
X012815Y0135725
X013125Y013475
X013325Y013675
X012665Y014085
X0125875Y0143775
X012425Y01495
X012025Y015
X0121775Y0140025
X012125Y01325
X01209998Y01299997
X01187498Y01317497
X01118Y0133325
X011325Y01365
X010885Y0135075
X011275Y01275
X01115Y012525
Y012125
X010415Y0124275
X010285Y0128275
X0096Y01315
X0093Y0129
X008575Y012975
X00795Y0129875
X0087Y012075
X008445Y01492
X0106Y01485
X01065Y0154
X011525Y0149
X01155Y014675
X011525Y0145
X0119Y0148
X01175Y01586
X00771Y014915
X00675Y013525
X0064Y013025
X0055375Y0133625
X005875Y014275
X01015Y016025
X0106Y016425
X011125Y016125
X01195Y01605
X01423Y0161625
T02
X00525Y011464
Y011718
X0149Y01175
Y012004
Y012258
Y012512
Y012766
Y01302
Y013274
Y013528
X00525Y013496
Y013242
Y012988
Y012734
Y01248
Y012226
Y011972
Y01375
X01008Y017095
X01052
T03
X012046Y016996
X0123
X012554
Y01725
X0123
X012046
T04
X010225Y010807
Y011066
Y011325
X012225Y011384
Y011125
Y010866
X01445Y010775
Y011034
Y010516
T05
X00867Y008074
X00902
X00937
X00972
X01007
X01042
X01077
X01112
X01147
X01182
Y008424
X01147
X01112
X01077
X01042
X01007
X00972
X00937
X00902
X00867
T06
X00548Y00802
X01468
X00548Y01722
X01468
T07
X00797Y00832
X01252
M30
